<?xml version="1.0" standalone="no"?>
<!DOCTYPE svg PUBLIC "-//W3C//DTD SVG 1.1//EN" "http://www.w3.org/Graphics/SVG/1.1/DTD/svg11.dtd" >
<svg xmlns="http://www.w3.org/2000/svg">
<metadata></metadata>
<defs>
<font id="lobster_twobold_italic" horiz-adv-x="1077" >
<font-face units-per-em="2048" ascent="1638" descent="-410" />
<missing-glyph horiz-adv-x="440" />
<glyph unicode="&#xfb01;" horiz-adv-x="1091" d="M-391 -283q0 68 30.5 116t81 82t114 57.5t128.5 43.5l227 1078q31 141 84.5 227t120 134t138 63.5t137.5 15.5q61 0 125.5 -9t119 -35t88 -72t33.5 -120q0 -92 -49.5 -128.5t-112.5 -36.5q-45 0 -83.5 22.5t-38.5 87.5q0 35 18 67.5t51 32.5h9.5t7.5 -2q-2 41 -33 61.5 t-80 20.5t-86 -19.5t-63.5 -52t-43 -74.5t-24.5 -85l-35 -168h164l-16 -82h-164l-234 -1106q-23 -106 -63.5 -174t-91 -106.5t-103.5 -53t-102 -14.5q-113 0 -183.5 61.5t-70.5 167.5zM-279 -248q0 -27 10.5 -42t24 -24.5t27.5 -12.5t22 -3q31 0 66 36t53 124l25 119 q-98 -31 -163 -81t-65 -116zM563 233q0 55 17 134l139 657h295l-148 -696q-8 -35 -8 -66q0 -43 20.5 -59.5t63.5 -16.5q59 0 110.5 51.5t73.5 129.5h86q-43 -125 -100 -200t-116.5 -115t-116 -52t-97.5 -12q-92 0 -155.5 58t-63.5 187z" />
<glyph unicode="&#xfb02;" horiz-adv-x="1122" d="M-391 -291q0 70 27.5 119t75.5 83t112.5 58.5t138.5 46.5l246 1170q23 111 65.5 178.5t94 105t107.5 51t106 13.5q139 0 271 -43t271 -98l-225 -1065q-8 -35 -8 -66q0 -43 20.5 -59.5t63.5 -16.5q59 0 110.5 51.5t73.5 129.5h86q-43 -125 -100.5 -200t-116.5 -115 t-115.5 -52t-97.5 -12q-92 0 -155.5 58t-63.5 187q0 55 16 134l213 1005q-41 16 -94 24.5t-74 8.5q-16 0 -36.5 -6t-39 -23.5t-36 -49.5t-27.5 -83l-45 -219h191l-17 -82h-190l-234 -1106q-23 -111 -64.5 -178.5t-94 -105t-107.5 -51t-107 -13.5q-47 0 -90 15.5t-76.5 45 t-54 70.5t-20.5 90zM-279 -262q0 -23 24 -45.5t58 -22.5q31 0 67 34t54 126l25 119q-49 -16 -90 -35.5t-72 -44.5t-48.5 -57.5t-17.5 -73.5z" />
<glyph unicode="&#xfb03;" horiz-adv-x="1566" d="M-391 -291q0 70 27.5 119t75.5 83t112.5 58.5t138.5 46.5l246 1170q23 111 64.5 178.5t94 105t107.5 51t107 13.5q170 0 252 -107q72 66 152.5 86.5t156.5 20.5q61 0 125.5 -9t119 -35t88 -72t33.5 -120q0 -92 -49 -128.5t-112 -36.5q-45 0 -84 22.5t-39 87.5 q0 35 18.5 67.5t50.5 32.5h9.5t7.5 -2q-2 41 -33 61.5t-80 20.5t-86 -19.5t-63.5 -52t-43 -74.5t-24.5 -85l-35 -168h543l-148 -696q-8 -35 -8 -66q0 -43 20.5 -59.5t63.5 -16.5q59 0 110.5 51.5t74.5 129.5h86q-43 -125 -100.5 -200t-117 -115t-116 -52t-97.5 -12 q-92 0 -155.5 58t-63.5 187q0 55 17 134l121 575h-246l-234 -1106q-23 -106 -63.5 -174t-90.5 -106.5t-103.5 -53t-102.5 -14.5q-76 0 -134.5 28.5t-88.5 80.5q-59 -66 -129 -87.5t-134 -21.5q-47 0 -90 15.5t-76.5 45t-54 70.5t-20.5 90zM-266 -262q0 -23 23.5 -45.5 t58.5 -22.5q31 0 66.5 34t54.5 126l24 119q-49 -16 -90 -35.5t-71.5 -44.5t-48 -57.5t-17.5 -73.5zM182 -293q6 -41 33 -53t43 -12q41 0 79 42t60 146l47 223l-182 -37l-39 -180q-14 -70 -41 -129zM274 74l181 30l176 838h-172zM475 1024h174l15 70q16 84 42.5 146.5 t59.5 109.5q-14 16 -33.5 25t-48.5 9q-43 0 -73.5 -17t-51 -45t-33 -62.5t-18.5 -67.5z" />
<glyph unicode="&#xfb04;" horiz-adv-x="1597" d="M-391 -291q0 70 27.5 119t75.5 83t112.5 58.5t138.5 46.5l246 1170q23 111 64.5 178.5t94 105t107.5 51t107 13.5q152 0 235 -86q55 51 118.5 68.5t121.5 17.5q139 0 271 -43t271 -98l-225 -1065q-8 -35 -8 -66q0 -43 20.5 -59.5t63.5 -16.5q59 0 110.5 51.5t73.5 129.5 h86q-43 -125 -100 -200t-116.5 -115t-116 -52t-97.5 -12q-92 0 -155.5 58t-63.5 187q0 55 16 134l213 1005q-41 16 -94 24.5t-73 8.5q-16 0 -37 -6t-39.5 -23.5t-35.5 -49.5t-28 -83l-45 -219h191l-17 -82h-190l-236 -1106q-23 -106 -63.5 -174t-90.5 -106.5t-103.5 -53 t-102.5 -14.5q-78 0 -135.5 28.5t-87.5 82.5q-59 -66 -129.5 -88.5t-133.5 -22.5q-47 0 -90 15.5t-76.5 45t-54 70.5t-20.5 90zM-266 -262q0 -23 23.5 -45.5t58.5 -22.5q31 0 66.5 34t54.5 126l24 119q-49 -16 -90 -35.5t-71.5 -44.5t-48 -57.5t-17.5 -73.5zM182 -291 q2 -23 11.5 -35t21.5 -20t23.5 -10t19.5 -2q41 0 79 42t60 146l47 223l-182 -37l-39 -180q-14 -68 -41 -127zM274 74l181 30l178 838h-174zM475 1024h174l35 162q10 55 27.5 99t38.5 79q-27 20 -66 20q-43 0 -73.5 -17t-51 -45t-33 -62.5t-18.5 -67.5z" />
<glyph horiz-adv-x="0" />
<glyph horiz-adv-x="682" />
<glyph unicode=" "  horiz-adv-x="440" />
<glyph unicode="&#x09;" horiz-adv-x="440" />
<glyph unicode="&#xa0;" horiz-adv-x="440" />
<glyph unicode="!" horiz-adv-x="552" d="M14 164q0 68 48.5 115t115.5 47q68 0 115 -47t47 -115t-47 -116t-115 -48t-116 48t-48 116zM145 473l146 961h295l-267 -961h-174z" />
<glyph unicode="&#x22;" horiz-adv-x="722" d="M190 1149l125 387h215l-186 -387h-154zM512 1149l125 387h215l-186 -387h-154z" />
<glyph unicode="#" horiz-adv-x="1110" d="M-2 227l43 209h213l43 232h-209l43 209h203l106 593h181l-134 -593h215l107 593h180l-133 -593h213l-41 -209h-217l-51 -232h219l-41 -209h-225l-62 -282h-116l51 282h-242l-61 -282h-117l51 282h-219zM391 436h232l43 232h-224z" />
<glyph unicode="$" horiz-adv-x="794" d="M47 446q0 92 44 138.5t108 46.5q39 0 61.5 -15.5t22.5 -35.5q-47 -8 -64.5 -54.5t-17.5 -87.5q0 -51 21.5 -81.5t64.5 -53.5l73 402q-37 31 -75.5 60.5t-69.5 61t-51.5 70.5t-20.5 88q0 57 28 105.5t73 83t101 56t114 23.5l39 217h118l-51 -223q35 -6 68 -17t57.5 -30.5 t38.5 -51.5t14 -77q0 -59 -24.5 -104t-75.5 -45q-23 0 -40 11t-38 36q27 16 38 44.5t11 55.5q0 68 -65 96l-74 -329q53 -37 96 -72t73 -72t46.5 -80t16.5 -96q0 -72 -29 -127t-79 -92t-117.5 -57.5t-143.5 -20.5l-59 -274h-56l49 276q-43 2 -84 16.5t-72.5 42t-50 68.5 t-18.5 98zM338 1026q0 -35 13.5 -65.5t43.5 -61.5l49 277q-59 -12 -82.5 -58.5t-23.5 -91.5zM356 295q74 10 105 63.5t31 116.5q0 53 -16.5 90t-43.5 70z" />
<glyph unicode="%" horiz-adv-x="1275" d="M141 999q0 90 22.5 170t65.5 139.5t104.5 94.5t139.5 35q90 0 129 -59.5t39 -172.5q0 -66 -19.5 -142.5t-58.5 -143t-95 -110.5t-130 -44q-59 0 -98 15.5t-60.5 46t-30 73.5t-8.5 98zM170 0l791 1536h147l-791 -1536h-147zM289 975q0 -49 10 -91t45 -42q41 0 73 32.5 t54.5 87t34.5 126t12 149.5q0 53 -9 91t-42 38q-23 0 -49.5 -19.5t-53 -57.5t-46 -95t-25.5 -131q-2 -18 -3 -41t-1 -47zM649 233q0 90 22.5 170t65.5 139.5t104.5 94.5t139.5 35q90 0 139 -59.5t49 -172.5q0 -66 -17 -142.5t-55 -143t-100.5 -110.5t-150.5 -44 q-59 0 -98 15.5t-60.5 46t-30 73.5t-8.5 98zM786 209q0 -49 10.5 -91t45.5 -42q41 0 71.5 30.5t52 83t33 121t11.5 146.5q0 53 -12.5 96t-45.5 43q-23 0 -48 -18.5t-47.5 -56.5t-41 -94t-24.5 -130q-2 -18 -3.5 -41t-1.5 -47z" />
<glyph unicode="&#x26;" horiz-adv-x="1378" d="M18 324q0 80 26 164.5t75 158.5t119.5 129t158.5 78q-66 47 -95.5 111.5t-29.5 134.5q0 80 33 157.5t93.5 141t142.5 102.5t180 39q61 0 114.5 -16.5t93.5 -49t62.5 -79.5t22.5 -111q0 -92 -45 -152.5t-107 -60.5q-55 0 -96 55q18 6 34.5 24.5t29 44.5t19.5 54.5t7 55.5 q0 63 -36 88.5t-77 25.5q-45 0 -83.5 -24.5t-66.5 -65.5t-43 -93t-15 -106q0 -45 11 -88t36.5 -79.5t64.5 -64.5t94 -42q-82 -18 -149.5 -70.5t-115.5 -122t-74.5 -148.5t-26.5 -148q0 -86 45 -146.5t149 -60.5q172 0 275.5 97t165.5 300q-41 2 -81 7t-79 5q-135 0 -193 -92 l-14 2q31 127 133.5 208t261.5 81q43 0 80 -5t76 -5q57 0 112.5 20.5t82.5 67.5h12q0 -43 -25.5 -89t-68.5 -87t-101.5 -71t-122.5 -38q-29 -125 -91 -234.5t-151 -190.5t-203 -127t-243 -46q-98 0 -169.5 30t-118 79t-68 114.5t-21.5 137.5z" />
<glyph unicode="'" horiz-adv-x="401" d="M190 1149l125 387h215l-186 -387h-154z" />
<glyph unicode="(" horiz-adv-x="575" d="M25 205q0 201 47 406.5t134 387t211 322.5t275 215l27 -82q-76 -39 -146.5 -112.5t-131 -174t-109.5 -222.5t-84 -254t-54.5 -270t-19.5 -271q0 -176 36 -331t114 -272l-68 -59q-121 133 -176 319.5t-55 397.5z" />
<glyph unicode=")" horiz-adv-x="575" d="M-203 -430q115 57 214.5 192.5t173 315.5t115.5 388t42 408q0 174 -36 330t-113 273l67 59q121 -133 176.5 -319.5t55.5 -397.5q0 -201 -47.5 -406.5t-134.5 -387t-211 -322.5t-275 -215z" />
<glyph unicode="*" horiz-adv-x="843" d="M180 1026l223 129l-223 129l62 107l219 -127v276h131v-276l219 127l61 -107l-223 -129l223 -129l-61 -106l-219 127v-277h-131v277l-219 -127z" />
<glyph unicode="+" horiz-adv-x="905" d="M25 420l49 229h262l55 250h232l-56 -250h260l-47 -229h-262l-55 -252h-232l56 252h-262z" />
<glyph unicode="," horiz-adv-x="475" d="M-18 154q0 68 47 115.5t114 47.5q68 0 104 -44t36 -111q0 -47 -18.5 -101.5t-52.5 -110.5t-83 -110.5t-113 -97.5q-18 12 -18 35q0 27 14.5 51.5t32.5 47t32.5 47t14.5 52.5q0 18 -17.5 34t-38 34t-37.5 44t-17 67z" />
<glyph unicode="-" horiz-adv-x="657" d="M80 455l37 161h409l-34 -161h-412z" />
<glyph unicode="." horiz-adv-x="491" d="M-18 154q0 68 47 115.5t114 47.5q68 0 116 -48t48 -115q0 -68 -48 -115t-116 -47t-114.5 47t-46.5 115z" />
<glyph unicode="/" horiz-adv-x="444" d="M-98 -512l434 2048h147l-434 -2048h-147z" />
<glyph unicode="0" horiz-adv-x="1224" d="M100 510q0 213 49.5 399.5t140.5 325.5t220 220t287 81q203 0 291 -135t88 -375q0 -106 -17.5 -225t-53.5 -234.5t-91.5 -220t-132 -184.5t-177 -127t-223.5 -47q-117 0 -190.5 41t-115.5 111.5t-58.5 165.5t-16.5 204zM412 451q0 -49 5 -97.5t20.5 -87.5t42 -63.5 t69.5 -24.5q80 0 145.5 85t113.5 221.5t73.5 308.5t25.5 346q0 53 -4 99t-14 81t-31.5 54.5t-54.5 19.5q-80 0 -151.5 -82t-125 -215t-84 -302t-30.5 -343z" />
<glyph unicode="1" horiz-adv-x="686" d="M92 0l258 1225h-194l37 147q43 0 94 4t114.5 20.5t141.5 48.5t170 87l-326 -1532h-295z" />
<glyph unicode="2" horiz-adv-x="1083" d="M20 61q0 109 50.5 204t125 183.5t161.5 175.5t162 180t125 197.5t50 227.5q0 96 -34.5 139t-112.5 43q-43 0 -70.5 -12.5t-44 -34t-23 -48t-6.5 -52.5q0 -43 16.5 -87t61.5 -59q-35 -33 -75.5 -51t-79.5 -18q-59 0 -103.5 43t-44.5 135q0 55 22.5 110.5t73 98.5t130 70.5 t196.5 27.5q104 0 179 -23.5t121 -66.5t67.5 -104.5t21.5 -137.5q0 -117 -44 -212t-113.5 -177t-154.5 -153.5t-168 -139t-152.5 -134.5t-106.5 -138q6 0 12 1t12 1q80 0 178.5 -18.5t202.5 -18.5q55 0 95.5 8t72 25.5t58 44t55.5 63.5q2 -25 2 -46v-44q0 -74 -10 -128 t-38 -89t-78 -52.5t-132 -17.5q-72 0 -129 11.5t-113.5 26t-116 25.5t-135.5 11q-18 0 -39.5 -7t-43 -16.5t-43 -18.5t-35.5 -15q-4 16 -4.5 33.5t-0.5 33.5z" />
<glyph unicode="3" horiz-adv-x="1105" d="M23 338q0 129 62 211t185 82q57 0 102.5 -23t57.5 -82q-55 0 -90 -19.5t-55.5 -48t-27.5 -62.5t-7 -64q0 -59 15.5 -95t41 -54.5t57 -24.5t62.5 -6q61 0 109.5 30.5t83 80.5t53 115.5t18.5 133.5q0 61 -15.5 118.5t-49 105.5t-85 80t-122.5 40q86 25 151.5 68t109.5 95 t66.5 110.5t22.5 111.5q0 72 -39 121t-117 49q-74 0 -117.5 -38t-43.5 -109q0 -41 17 -87.5t60 -58.5q-39 -35 -78.5 -52t-76.5 -17q-61 0 -104.5 45t-43.5 129q0 70 33 127t90.5 98t134 63.5t166.5 22.5q94 0 166 -24.5t119 -65.5t71.5 -95.5t24.5 -113.5 q0 -102 -69.5 -205.5t-210.5 -175.5q135 -47 196.5 -145.5t61.5 -212.5q0 -90 -41 -180.5t-117 -163t-182.5 -118.5t-237.5 -46q-45 0 -113.5 10t-134 46t-112.5 105.5t-47 188.5z" />
<glyph unicode="4" horiz-adv-x="1038" d="M20 553q27 84 79.5 179t103.5 198.5t89 212t38 221.5q0 31 -8.5 84t-16.5 88q45 0 86 -11.5t73 -36t50 -66.5t18 -103q0 -80 -29.5 -158t-72.5 -152.5t-91 -147.5t-87 -146h299l168 780l303 41l-176 -821h131l-41 -162h-125l-117 -553h-295l117 553h-496z" />
<glyph unicode="5" horiz-adv-x="1079" d="M29 285q0 80 24.5 136t62.5 90t85 49t94 15q125 0 145 -104q-80 -10 -133 -46t-53 -122q0 -84 47 -124t119 -40q68 0 118 34t83.5 88t50 122t16.5 133q0 135 -62.5 210t-166.5 75q-84 0 -165 -39t-140 -76l168 817q109 -12 195.5 -23.5t172.5 -11.5q78 0 158 14.5 t174 51.5q2 -16 3 -33.5t1 -34.5q0 -49 -12.5 -92t-40 -75.5t-72.5 -51t-110 -18.5q-41 0 -88.5 6t-93.5 15.5t-88 17.5t-72 12l-82 -371q72 35 135 49.5t121 14.5q92 0 160.5 -34t112.5 -92.5t65.5 -135t21.5 -162.5q0 -106 -34 -206.5t-105.5 -179.5t-183 -127t-267.5 -48 q-61 0 -125.5 10t-118 43t-87 90t-33.5 154z" />
<glyph unicode="6" horiz-adv-x="1142" d="M84 428q0 133 21.5 267t64.5 257t105.5 229.5t144.5 185.5t180 124t215 45q137 0 203.5 -52t66.5 -116q0 -23 -8 -48.5t-24.5 -48t-41 -36.5t-59.5 -14q-14 0 -24 2t-25 6q16 16 26.5 39.5t10.5 46.5q0 45 -35 71.5t-86 26.5q-63 0 -121.5 -42t-109.5 -113.5t-92 -167 t-71 -200t-46.5 -215t-16.5 -210.5q0 -160 42 -225.5t128 -65.5q78 0 132.5 42t88 105.5t49 134t15.5 130.5q0 55 -12 94t-31.5 63.5t-44 36t-51.5 11.5q-53 0 -88 -38t-35 -91q0 -24 6 -44q-33 0 -52.5 8.5t-30.5 22t-15 29.5t-4 31q0 39 21.5 80.5t61.5 77.5t96 58.5 t128 22.5q80 0 134 -29.5t88 -77.5t49.5 -111.5t15.5 -131.5q0 -113 -38 -222.5t-113 -195.5t-184.5 -139t-252.5 -53q-115 0 -188.5 30.5t-116.5 88t-59.5 138.5t-16.5 183z" />
<glyph unicode="7" horiz-adv-x="1021" d="M170 1350q0 57 19.5 94t52 56.5t76.5 26.5t94 7q66 0 142.5 -8t156.5 -17.5t157.5 -17.5t147.5 -8q41 0 82 3t86 13q0 -39 -46 -110.5t-114 -168t-148.5 -212t-148.5 -242.5t-114 -260t-46 -262q0 -29 2 -54.5t6.5 -52t10.5 -56.5t16 -67q-35 -16 -67.5 -24t-61.5 -8 q-106 0 -157.5 72.5t-51.5 201.5q0 96 45 197.5t112.5 201t147.5 192.5t147.5 175t112.5 148.5t45 111.5q-27 6 -67.5 13.5t-85.5 12.5t-91 9t-85 4q-47 0 -90 -7t-77 -25.5t-55.5 -49.5t-25.5 -76q-55 2 -91 53.5t-36 133.5z" />
<glyph unicode="8" horiz-adv-x="1136" d="M41 387q0 68 22.5 139.5t67.5 135t114.5 113.5t164.5 79q-92 53 -133 126t-41 153q0 74 32.5 146.5t93 128.5t147.5 92t196 36q90 0 159.5 -24.5t117.5 -65.5t72.5 -95.5t24.5 -113.5q0 -104 -71.5 -208.5t-214.5 -174.5q125 -41 186 -132t61 -200q0 -92 -42 -187 t-117.5 -172t-181 -126t-230.5 -49q-102 0 -182 32.5t-134.5 88t-83 128t-28.5 150.5zM322 385q0 -45 12 -86t33.5 -71.5t52 -49t67.5 -18.5q49 0 96.5 30.5t84.5 79.5t59.5 108.5t22.5 119.5q0 51 -16.5 94t-42 79t-58.5 61.5t-64 41.5q-61 -25 -107 -70t-77 -99 t-47 -111.5t-16 -108.5zM504 1167q0 -68 26.5 -132t81.5 -111q51 33 91 75.5t68 89t43 94.5t15 93q0 61 -29.5 108.5t-94.5 47.5q-41 0 -78 -21.5t-64.5 -57.5t-43 -84t-15.5 -102z" />
<glyph unicode="9" horiz-adv-x="1138" d="M133 193q0 27 7 55t27.5 51t54.5 38t87 15q-29 -29 -28 -69q0 -16 5 -36t19 -37t38 -29.5t60 -12.5q8 0 38 4t72 27.5t89 75t89 143.5t76 233.5t46 345.5q2 29 3 53.5t1 55.5q0 88 -12 146.5t-33.5 94t-52.5 50t-66 14.5q-61 0 -112.5 -36t-87 -95t-56 -135t-20.5 -154 q0 -29 4 -66.5t17.5 -72.5t38 -59.5t65.5 -24.5q49 0 93 36.5t69 104.5q31 -18 40 -48t9 -50q0 -41 -23.5 -75t-61.5 -58.5t-88.5 -38.5t-101.5 -14q-80 0 -135 30.5t-91 81.5t-52.5 117t-16.5 137q0 111 38 210t107.5 174t170 118t223.5 43q117 0 196.5 -31.5t128 -91 t70 -146.5t21.5 -198q0 -207 -52.5 -401.5t-145.5 -345t-222 -241.5t-285 -91q-72 0 -121 17.5t-79.5 46t-45 64.5t-14.5 75z" />
<glyph unicode=":" horiz-adv-x="563" d="M41 276q0 68 47 116t115 48t116 -48t48 -116t-48.5 -114.5t-115.5 -46.5q-68 0 -115 46.5t-47 114.5zM143 768q0 68 47.5 116t114.5 48q68 0 116 -48t48 -116t-48 -115t-116 -47t-115 47t-47 115z" />
<glyph unicode=";" horiz-adv-x="550" d="M23 186q0 68 47 116t114 48q68 0 104 -44t36 -111q0 -47 -18.5 -101.5t-52.5 -111t-83 -110.5t-113 -97q-18 12 -18 35q0 27 14.5 51t32.5 46.5t32.5 47.5t14.5 53q0 18 -17.5 33.5t-38 34t-37.5 44t-17 66.5zM121 678q0 68 47 116t115 48t115.5 -48.5t47.5 -115.5 q0 -68 -48 -115t-115 -47q-68 0 -115 47t-47 115z" />
<glyph unicode="&#x3c;" horiz-adv-x="733" d="M14 487l19 84l629 308l-21 -113l-494 -246l398 -196l-25 -117z" />
<glyph unicode="=" horiz-adv-x="1024" d="M41 207l49 229h754l-47 -229h-756zM131 647l49 230h754l-47 -230h-756z" />
<glyph unicode="&#x3e;" horiz-adv-x="741" d="M23 207l28 117l492 196l-398 246l19 113l504 -308l-23 -110z" />
<glyph unicode="?" horiz-adv-x="860" d="M135 164q0 68 48 115t116 47t115 -47t47 -115t-47 -116t-115 -48t-116 48t-48 116zM150 1104q0 51 22.5 109.5t74.5 107.5t136 81t207 32q94 0 155.5 -19.5t97.5 -54.5t50 -83.5t14 -105.5q0 -88 -29.5 -152.5t-75.5 -117.5t-103.5 -98t-112 -93t-100.5 -104.5 t-70 -130.5h-135q0 70 28.5 128.5t70.5 109.5t92 100t92 102.5t71 114t29 135.5q0 92 -39 125t-82 33q-31 0 -60.5 -12.5t-53 -34t-38 -53t-14.5 -68.5t17.5 -81t60.5 -56q-27 -43 -67 -64.5t-83 -21.5q-59 0 -107 43t-48 129z" />
<glyph unicode="@" horiz-adv-x="1124" d="M33 336q0 168 55 314.5t150.5 255t222.5 172t270 63.5q47 0 103.5 -10.5t105.5 -44t82 -97t33 -170.5q0 -100 -30 -196.5t-79 -173t-111.5 -123.5t-127.5 -47q-37 0 -59.5 15t-33.5 38q-25 -37 -54.5 -61.5t-74.5 -24.5q-55 0 -87.5 44t-32.5 136q0 68 18 147.5t53 149.5 t84 116t113 46q29 0 49 -10.5t31 -24.5l8 31l113 -13l-93 -393q-4 -12 -6 -24.5t-2 -22.5q0 -23 7.5 -31t17.5 -8q20 0 51 39t59.5 99.5t48 133t19.5 140.5q0 43 -10.5 85t-35 73.5t-64.5 52t-101 20.5q-109 0 -198 -62.5t-153.5 -158.5t-100 -212t-35.5 -222 q0 -61 13 -114.5t45 -91.5t84 -60.5t130 -22.5q109 0 184.5 40t126.5 105q29 -12 38 -37.5t9 -50.5q0 -49 -29.5 -90t-84 -70.5t-132 -46t-171.5 -16.5q-72 0 -147 20.5t-135 68.5t-98 127t-38 198zM483 459q0 -29 9.5 -60.5t33.5 -31.5q14 0 34 11t42 28q0 18 6 36l88 342 q-16 20 -43 21q-37 0 -67.5 -39t-53 -94.5t-36 -114.5t-13.5 -98z" />
<glyph unicode="A" horiz-adv-x="1234" d="M-80 686q0 51 32 97t87 81t131 54.5t164 19.5q45 0 110 -6q78 123 165 232.5t179.5 192.5t186.5 131t186 48q31 0 76 -6t82 -23l-322 -1507h-295l158 743q-78 35 -142.5 51.5t-131.5 22.5q-57 -125 -106.5 -257t-84.5 -255t-55.5 -230.5t-20.5 -185.5q0 -59 9.5 -83.5 t19.5 -38.5q-41 0 -89 4t-89 24.5t-68.5 64.5t-27.5 124q0 70 21.5 164t61.5 203.5t95 229t123 236.5q-96 -6 -157.5 -29.5t-82.5 -76.5q8 0 17.5 -20.5t9.5 -43.5q0 -37 -34 -58.5t-81 -21.5q-53 0 -90 30t-37 89zM629 905q63 -12 126.5 -29.5t123.5 -41.5l118 557 q-92 -49 -187 -181.5t-181 -304.5z" />
<glyph unicode="B" horiz-adv-x="1394" d="M117 993q0 106 61.5 203.5t164.5 173.5t237.5 121t279.5 45q113 0 195 -27.5t136 -72.5t79.5 -103.5t25.5 -122.5q0 -92 -52 -180t-152 -145q66 -12 111.5 -44t74.5 -76t42 -98.5t13 -111.5q0 -74 -21.5 -175t-73.5 -193.5t-138 -157t-215 -64.5q-33 0 -69 6t-65.5 22.5 t-49 46.5t-19.5 77q0 51 27 119q39 -41 70.5 -57.5t66.5 -16.5q55 0 94 35.5t63.5 90t35 119t10.5 123.5q0 53 -9.5 100.5t-32 83.5t-60.5 56.5t-93 20.5q-12 0 -39 -1.5t-55 -5.5l-168 -784h-295l278 1303l304 40l-97 -454h13q61 0 114.5 30.5t93 77.5t63.5 106.5t24 117.5 q0 43 -15.5 82.5t-47.5 70.5t-83 49.5t-125 18.5q-90 0 -181 -31t-165 -92.5t-120 -154.5t-46 -220q0 -37 4 -60.5t8.5 -39t9.5 -24.5t7 -15q-102 0 -160.5 42t-58.5 146z" />
<glyph unicode="C" horiz-adv-x="1038" d="M92 469q0 92 15.5 208t50.5 233.5t90 230t135 201t187.5 141.5t244.5 53q68 0 129.5 -15.5t106.5 -48t71.5 -86t26.5 -129.5q0 -78 -33 -131t-110 -53q-25 0 -56.5 9.5t-60.5 43.5q37 18 65.5 74.5t28.5 112.5q0 51 -28.5 89t-88.5 38q-59 0 -114.5 -42t-103.5 -113 t-88 -166t-68.5 -200.5t-44 -216t-15.5 -213.5q0 -74 10.5 -135t37 -106t74.5 -69.5t122 -24.5q117 0 223.5 58t177.5 157l47 -21q-41 -92 -106.5 -162.5t-145 -120t-172 -74t-186.5 -24.5q-201 0 -311.5 120t-110.5 382z" />
<glyph unicode="D" horiz-adv-x="1449" d="M117 995q0 104 61.5 202.5t164.5 173.5t239.5 120t287.5 45q152 0 257.5 -46t172 -128t96 -191.5t29.5 -236.5q0 -113 -20.5 -227.5t-58 -221t-91 -201t-116 -163t-134 -108.5t-147.5 -40q-59 0 -121.5 26t-128.5 83l-16 -82h-295l278 1303l304 40l-246 -1148 q55 -41 117 -41q92 0 164.5 84t122.5 213t78 283.5t28 293.5q0 115 -19.5 193.5t-58.5 128t-98.5 71t-139.5 21.5q-104 0 -199.5 -34t-166 -98.5t-112.5 -156.5t-42 -209q0 -37 4 -60.5t8.5 -39t9.5 -24.5t7 -15q-102 0 -160.5 43t-58.5 147z" />
<glyph unicode="E" horiz-adv-x="919" d="M27 324q0 80 25.5 164.5t74.5 158.5t119.5 129t159.5 78q-66 47 -95.5 111.5t-29.5 134.5q0 80 32.5 157.5t93 141t142.5 102.5t180 39q61 0 114.5 -16.5t93.5 -49t62.5 -79.5t22.5 -111q0 -92 -45 -152.5t-107 -60.5q-55 0 -96 55q18 6 34.5 24.5t29 44.5t19.5 54.5 t7 55.5q0 63 -35.5 88.5t-76.5 25.5q-45 0 -84 -24.5t-67 -65.5t-43 -93t-15 -106q0 -45 11 -88t36.5 -79.5t64.5 -64.5t95 -42q-82 -18 -150 -70.5t-116 -122t-74.5 -148.5t-26.5 -148q0 -86 45 -146.5t150 -60.5q47 0 101 13t106.5 40t97.5 65.5t73 90.5l48 -21 q-41 -90 -104.5 -161.5t-143.5 -121t-170 -76t-183 -26.5q-98 0 -169.5 30t-117.5 79t-67.5 114.5t-21.5 137.5z" />
<glyph unicode="F" horiz-adv-x="1144" d="M129 1012q0 98 40 192t123 168t209 119t298 45q53 0 97 -4t87 -8t87 -8.5t95 -4.5t97.5 5.5t89.5 19.5q-18 -82 -43 -130t-53.5 -73.5t-62.5 -34t-69 -8.5q-57 0 -121.5 11.5t-132.5 25.5l-86 -405h299l-32 -152h-299l-166 -770h-295l295 1368q-55 -2 -104.5 -22.5 t-85.5 -66.5t-56.5 -123t-20.5 -193q0 -41 3.5 -68t7.5 -44t9 -27.5t9 -18.5q-111 0 -165 45t-54 162z" />
<glyph unicode="G" horiz-adv-x="1210" d="M102 731q0 156 51.5 301.5t146.5 257t231.5 179t306.5 67.5q72 0 141.5 -14.5t123.5 -47t87 -87t33 -134.5q0 -72 -33 -126t-111 -54q-12 0 -30.5 2t-38 8.5t-39 16.5t-33.5 26q18 6 34.5 25.5t29 45.5t19.5 53.5t7 49.5q0 10 -3 31t-17.5 42.5t-43 37.5t-79.5 16 q-96 0 -181.5 -61t-148.5 -160.5t-100 -223.5t-37 -247q0 -160 57 -247t137 -87q43 0 88 27t89.5 82t83 141t67.5 207l242 -2l-168 -770q-25 -117 -65 -212t-99 -160.5t-140 -101.5t-188 -36q-92 0 -152.5 24.5t-97 63.5t-52 89t-15.5 104q0 53 14 103t47 90t85 64.5 t128 24.5q20 0 51 -4t58.5 -17.5t47 -41t19.5 -74.5q0 -37 -12 -82q-23 33 -57.5 43t-61.5 10q-76 0 -111.5 -49t-35.5 -108q0 -53 31.5 -95.5t107.5 -42.5q29 0 56.5 9.5t52 37t46 76.5t40.5 129l102 453q-63 -82 -141 -121t-170 -39q-88 0 -161 35t-126 99.5t-83 158.5 t-30 215z" />
<glyph unicode="H" horiz-adv-x="1423" d="M115 993q0 109 64.5 207t167 173t230.5 119t254 44q23 0 43.5 -1t40.5 -3l-131 -610h301l132 610h294l-325 -1532h-295l164 770h-301l-164 -770h-295l297 1393q-135 -55 -211 -170t-76 -277q0 -37 4 -61.5t8.5 -40t9.5 -24.5t7 -15q-102 0 -160.5 42t-58.5 146z" />
<glyph unicode="I" horiz-adv-x="827" d="M115 993q0 109 64.5 207t167 173t230.5 119t254 44q23 0 43.5 -1t40.5 -3l-325 -1532h-295l297 1391q-135 -55 -211 -168t-76 -277q0 -37 4 -61.5t8.5 -40t9.5 -24.5t7 -15q-102 0 -160.5 42t-58.5 146z" />
<glyph unicode="J" horiz-adv-x="911" d="M-150 -139q0 53 14.5 103t47.5 89t85 62.5t128 23.5q20 0 51 -4t58.5 -17.5t47 -41t19.5 -74.5q0 -37 -12 -82q-20 33 -56 43t-65 10q-74 0 -109.5 -47t-35.5 -106q0 -68 41.5 -105t107.5 -37q29 0 54.5 9.5t49 37t43 76.5t37.5 129l322 1463q-135 -55 -212 -169 t-77 -280q0 -37 4 -60.5t8.5 -39t9.5 -24.5t7 -15q-102 0 -160.5 42t-58.5 146q0 109 64.5 207t166.5 173t230 119t258 44h81l-307 -1454q-25 -113 -64.5 -206t-101 -159.5t-146.5 -103.5t-200 -37q-88 0 -150.5 21.5t-102.5 59.5t-58.5 90t-18.5 114z" />
<glyph unicode="K" horiz-adv-x="1325" d="M115 993q0 109 64.5 207t167 173t230.5 119t254 44q23 0 43.5 -1t40.5 -3l-139 -653l496 647h190l-577 -656q20 0 36.5 1t30.5 1q80 0 131.5 -16t81 -45t42 -69t12.5 -87q0 -63 -15.5 -134.5t-35 -140.5t-35 -132.5t-15.5 -108.5q0 -51 21.5 -88t58.5 -51 q-66 -18 -116 -26.5t-87 -8.5q-49 0 -80.5 12.5t-49 32t-23.5 44t-6 48.5q0 51 17 120t36.5 142.5t37 145.5t17.5 131q0 61 -26.5 100t-94.5 39q-16 0 -33.5 -2t-35.5 -6l-164 -772h-295l297 1393q-135 -55 -211 -170t-76 -277q0 -37 4 -61.5t8.5 -40t9.5 -24.5t7 -15 q-102 0 -160.5 42t-58.5 146z" />
<glyph unicode="L" horiz-adv-x="931" d="M111 973q0 109 64.5 207t166.5 172.5t230 119t255 44.5q23 0 43.5 -1.5t40.5 -3.5l-315 -1470q80 -18 160 -61t165 -88.5t175 -80t190 -34.5q39 0 82 7t88 26q-16 -147 -70.5 -234.5t-156.5 -87.5q-66 0 -133.5 35t-137 86t-143.5 111.5t-151.5 111.5t-161.5 86t-172 35 h-23.5t-23.5 -2l305 1419q-135 -55 -211 -167.5t-76 -276.5q0 -72 11.5 -99.5t17.5 -42.5q-102 0 -160.5 42t-58.5 147z" />
<glyph unicode="M" horiz-adv-x="1617" d="M117 0l520 1407q-154 -51 -240 -168t-86 -293q0 -37 4 -60.5t8.5 -39t9.5 -25.5t7 -16q-98 0 -158.5 42t-60.5 142q0 98 58.5 196.5t150.5 176.5t207.5 126t230.5 48q84 0 160 -29l-47 -1079l450 1079h295l-215 -1507h-295l131 920l-385 -920h-280l41 924l-342 -924h-164 z" />
<glyph unicode="N" horiz-adv-x="1480" d="M125 1004q0 92 42 187t122 172t196.5 125t266.5 48q25 0 62.5 -4t80.5 -25l240 -1087l243 1112h199l-348 -1532h-283l-237 1016l-234 -1016h-194l315 1395q-133 -53 -207 -163t-74 -282q0 -39 3.5 -63.5t8.5 -40t9 -24.5t8 -17q-106 0 -162.5 44t-56.5 155z" />
<glyph unicode="O" horiz-adv-x="1427" d="M111 977q0 106 68.5 207.5t182 179.5t261 125t303.5 47q137 0 232 -38t153.5 -107.5t84 -165t25.5 -207.5q0 -100 -18.5 -216t-58 -229.5t-100 -220t-143.5 -187.5t-190.5 -129t-238.5 -48q-84 0 -152.5 22.5t-118 71.5t-76 127t-26.5 190q0 82 15.5 185.5t46 211 t76.5 209t108.5 180.5t139.5 127t171 48q23 0 49.5 -3.5t55.5 -13.5q-47 -29 -91.5 -88t-84.5 -139t-73.5 -173t-58 -189.5t-38 -190.5t-13.5 -172q0 -104 27.5 -162.5t95.5 -58.5q76 0 151.5 84t136 217t98.5 300t38 333q0 90 -13.5 153.5t-45 104.5t-84 60.5t-129.5 19.5 q-111 0 -215.5 -37t-185.5 -104.5t-130 -165t-49 -217.5q0 -57 6 -78t14 -35q-98 0 -152 39t-54 133z" />
<glyph unicode="P" horiz-adv-x="1232" d="M117 993q0 109 63.5 207t167 173t235.5 119t267 44q119 0 207 -34t146.5 -89t87 -129t28.5 -154q0 -96 -41 -193t-117 -176t-186.5 -128t-247.5 -49h-10l-125 -584h-295l278 1303l304 40l-146 -684q78 6 143.5 54.5t113.5 121t75 161.5t27 175q0 53 -13.5 102.5 t-45.5 86.5t-88 59.5t-142 22.5q-100 0 -190.5 -33t-158 -95.5t-107.5 -155.5t-40 -212q0 -39 3 -62.5t7.5 -39t9.5 -23.5t9 -16q-102 0 -160.5 42t-58.5 146z" />
<glyph unicode="Q" horiz-adv-x="1429" d="M111 977q0 106 68.5 207.5t182 179.5t261 125t303.5 47q137 0 232 -38t153.5 -107.5t84 -165t25.5 -207.5q0 -111 -22.5 -239t-70.5 -252t-121.5 -234.5t-174.5 -186.5q23 -33 46.5 -62.5t53 -53t66.5 -36.5t84 -13q16 0 26.5 1t22.5 3q-41 -104 -92 -140t-123 -36 q-66 0 -109.5 21.5t-72.5 56t-46.5 78.5t-29.5 91q-87 -28 -180 -28h-6q-84 0 -152.5 22.5t-118 71.5t-76 127t-26.5 190q0 82 15.5 185.5t46 211t76.5 209t108.5 180.5t139.5 127t171 48q23 0 49.5 -3.5t55.5 -13.5q-47 -29 -91.5 -88t-84.5 -139t-73.5 -173t-58 -189.5 t-38 -190.5t-13.5 -172v-46t4 -42q74 18 127 19q53 0 93 -15.5t73 -40.5q51 66 97 160t80 205.5t53.5 232.5t19.5 240q0 90 -13.5 153.5t-45 104.5t-84 60.5t-129.5 19.5q-111 0 -215.5 -37t-185.5 -104.5t-130 -165t-49 -217.5q0 -59 8 -79t12 -34q-98 0 -152 39t-54 133z M623 238q28 -84 102 -84q39 0 74 20q-18 33 -46 52.5t-71 19.5q-29 0 -59 -8z" />
<glyph unicode="R" horiz-adv-x="1343" d="M117 993q0 106 61.5 203.5t164.5 173.5t236.5 121t274.5 45q111 0 195 -27.5t140 -73.5t83.5 -105.5t27.5 -123.5q0 -92 -57 -189t-166 -159q84 -23 114 -77t30 -126q0 -63 -15.5 -134.5t-35 -140.5t-35 -132.5t-15.5 -108.5q0 -51 21.5 -88t58.5 -51q-66 -18 -116 -26.5 t-87 -8.5q-49 0 -80.5 12.5t-49 32t-23.5 44t-6 48.5q0 51 17 120t36.5 142.5t37 145.5t17.5 131q0 61 -26.5 100t-94.5 39q-16 0 -32.5 -2t-36.5 -6l-164 -772h-295l278 1303l304 40l-101 -473h17q63 0 116.5 34t92 86t60 116.5t21.5 126.5q0 41 -11 79t-39.5 66.5t-79 46 t-128.5 17.5q-106 0 -200.5 -34t-165 -98.5t-112.5 -156.5t-42 -209q0 -37 4 -60.5t8.5 -39t9.5 -24.5t7 -15q-102 0 -160.5 42t-58.5 146z" />
<glyph unicode="S" d="M-2 309q0 82 26.5 145.5t69.5 105.5t97.5 63.5t107.5 21.5q27 0 56.5 -6t55 -21.5t44 -42t24.5 -65.5q-43 0 -86 -11.5t-77.5 -35t-57 -61t-22.5 -91.5q0 -78 52 -131t150 -53q104 0 170 68.5t66 197.5q0 88 -31 159t-78 131t-101 116.5t-101.5 113t-78 119t-30.5 137.5 q0 80 37 147.5t100.5 116t150.5 76t185 27.5q37 0 92 -7t108.5 -31.5t91.5 -74t38 -133.5q0 -90 -45 -148.5t-123 -58.5q-57 0 -94 43q41 25 66.5 75t25.5 102q0 53 -33 94t-119 41t-137 -46t-51 -139q0 -76 33.5 -132t85 -106t112 -100.5t111.5 -113t85 -142t34 -190.5 q0 -129 -48.5 -224t-128 -157.5t-184 -93.5t-215.5 -31q-88 0 -167 18.5t-138 60.5t-94 107.5t-35 159.5z" />
<glyph unicode="T" horiz-adv-x="1380" d="M127 1014q0 98 38 191t123 166t219 118t329 45q82 0 146.5 -7t122.5 -16.5t113.5 -16.5t118.5 -7q86 0 147.5 13t102.5 30q-4 -135 -68.5 -197.5t-193.5 -62.5q-72 0 -149.5 13t-161.5 32l-283 -1315h-295l291 1356h-22q-80 0 -151 -18.5t-123 -63.5t-83 -124t-31 -198 q0 -43 3.5 -67.5t8.5 -40t9 -24.5t8 -17q-111 0 -165 45t-54 166z" />
<glyph unicode="U" horiz-adv-x="1576" d="M113 993q0 109 65.5 207t173 173t246.5 119t289 44q27 0 46 -2t52 -8q-72 -264 -124 -453.5t-86 -324t-50 -224.5t-16 -157q0 -53 3 -90t18 -59.5t48 -34t92 -11.5q39 0 72 7t62.5 33t57.5 73t56.5 128t59 199.5t67.5 286.5l137 633h289l-135 -639 q-49 -233 -101.5 -404.5t-130 -283t-192.5 -165.5t-287 -54q-111 0 -186.5 21.5t-121.5 64.5t-66.5 104.5t-20.5 140.5q0 147 51 357.5t117 472.5l68 270q-168 -45 -265.5 -164.5t-97.5 -306.5q0 -76 11.5 -101.5t17.5 -39.5q-102 0 -160.5 42t-58.5 146z" />
<glyph unicode="V" horiz-adv-x="1351" d="M113 993q0 109 64.5 207t166.5 173t230 119t255 44q23 0 43.5 -1t40.5 -3l19 -1260l430 1254h143l-569 -1526h-295l-33 1399q-143 -53 -224 -169t-81 -284q0 -37 4 -60.5t8 -39t9.5 -25.5t7.5 -16q-102 0 -160.5 42t-58.5 146z" />
<glyph unicode="W" horiz-adv-x="2060" d="M113 993q0 109 64.5 207t166.5 173t230 119t255 44q23 0 43.5 -1t40.5 -3l19 -1260l430 1254h260l18 -1254l431 1254h143l-569 -1526h-295l-25 1042l-389 -1042h-295l-33 1399q-143 -53 -224 -169t-81 -284q0 -37 4 -61.5t8 -40t9.5 -24.5t7.5 -15q-102 0 -160.5 42 t-58.5 146z" />
<glyph unicode="X" horiz-adv-x="1372" d="M113 993q0 109 64.5 207t166.5 173t230 119t255 44q23 0 43.5 -1t40.5 -3l136 -555l262 549h133l-354 -723l196 -803h-325l-144 565l-301 -565h-137l393 745l-164 654q-143 -53 -224 -169t-81 -284q0 -37 4 -61.5t8 -40t9.5 -24.5t7.5 -15q-102 0 -160.5 42t-58.5 146z " />
<glyph unicode="Y" horiz-adv-x="1353" d="M113 993q0 109 64.5 207t166.5 173t230 119t255 44q23 0 43.5 -1t40.5 -3l179 -733l303 727h135l-397 -895l-136 -631h-327l135 631l-197 768q-143 -53 -224 -169t-81 -284q0 -37 4 -61.5t8 -40t9.5 -24.5t7.5 -15q-102 0 -160.5 42t-58.5 146z" />
<glyph unicode="Z" horiz-adv-x="1095" d="M16 0l717 1425q-33 0 -82 2.5t-102 2.5q-37 0 -71 -2.5t-59.5 -7.5t-42 -13t-16.5 -23q10 0 22.5 -14t12.5 -51q0 -35 -12 -56.5t-29.5 -36t-39 -19.5t-40.5 -5q-59 0 -81.5 39t-22.5 82q0 39 16.5 77t48 68.5t78.5 49t109 18.5h702l-706 -1403q41 0 93 -2t103 -2 q72 0 132.5 8t80.5 37q-10 0 -23 13.5t-13 50.5q0 33 11 55t29.5 36.5t40 20.5t41.5 6q57 0 81 -37.5t24 -80.5q0 -39 -18.5 -81t-52.5 -77t-82 -57.5t-109 -22.5h-740z" />
<glyph unicode="[" horiz-adv-x="610" d="M-98 -512l434 2048h416l-27 -127h-227l-381 -1794h227l-27 -127h-415z" />
<glyph unicode="\" d="M217 1536h148l434 -2048h-148z" />
<glyph unicode="]" horiz-adv-x="608" d="M-203 -512l27 127h227l381 1794h-227l26 127h416l-434 -2048h-416z" />
<glyph unicode="^" horiz-adv-x="862" d="M102 1149l435 387h43l122 -387h-65l-123 164l-321 -164h-91z" />
<glyph unicode="_" horiz-adv-x="907" d="M-43 0l37 162h717l-35 -162h-719z" />
<glyph unicode="`" horiz-adv-x="411" d="M49 1536h215l60 -387h-154z" />
<glyph unicode="a" d="M8 317q0 70 14.5 150t43 160t71.5 153.5t102.5 130t132 90t163.5 33.5q25 0 52 -3t51 -14t41 -32.5t23 -56.5l21 96h297l-150 -696q-8 -35 -8 -66q0 -43 20.5 -59.5t63.5 -16.5q59 0 101.5 51.5t64.5 129.5h86q-43 -125 -97 -198t-110.5 -111t-110 -48t-94.5 -10 q-84 0 -136 45t-64 133q-23 -35 -53.5 -69.5t-68.5 -61.5t-83 -43t-100 -16q-53 0 -101.5 17.5t-87.5 56t-61.5 101t-22.5 154.5zM311 346q0 -59 11.5 -91t27 -47t32.5 -18.5t32 -3.5q23 0 48 11.5t50 34t43 56.5t29 79l98 462q0 8 -5 21.5t-14.5 26t-24.5 21.5t-40 9 q-66 0 -119 -60.5t-90 -147.5t-57.5 -184t-20.5 -169z" />
<glyph unicode="b" horiz-adv-x="909" d="M20 250q0 57 15 117l219 1026l303 41l-98 -461q63 39 100 50t68 11q53 0 98 -18.5t77 -60.5t49 -109.5t17 -165.5q0 -59 -11 -134t-37.5 -152t-68.5 -150.5t-104.5 -130t-146.5 -91t-193 -34.5q-141 0 -214 69.5t-73 192.5zM313 281q0 -94 109 -95q49 0 93 48.5t77 122 t51.5 162.5t18.5 169q0 37 -6.5 73t-20.5 63.5t-34.5 44t-47.5 16.5q-10 0 -27.5 -2t-35 -6.5t-34 -11.5t-24.5 -17l-113 -520q-6 -25 -6 -47z" />
<glyph unicode="c" horiz-adv-x="786" d="M8 313q0 59 12.5 135t39 156t68.5 157t103.5 138.5t142.5 98t185 36.5q68 0 112 -15t69.5 -41t35.5 -58.5t10 -65.5q0 -76 -31.5 -124t-76.5 -48q-16 0 -40 6.5t-42 18.5q16 35 25.5 75.5t9.5 67.5q0 76 -58 76q-53 0 -102 -61.5t-86 -151.5t-59.5 -192.5t-22.5 -186.5 q0 -104 41 -139t115 -35q61 0 110 16.5t92.5 44t82 65.5t77.5 81h70q-43 -72 -98.5 -139.5t-125 -121t-153.5 -86t-186 -32.5q-145 0 -232.5 75.5t-87.5 249.5z" />
<glyph unicode="d" d="M8 317q0 70 14.5 150t43 160t71.5 153.5t102.5 130t132 90t163.5 33.5q25 0 52 -3t52 -14t42 -32.5t21 -58.5l101 467l303 41l-236 -1106q-8 -35 -8 -66q0 -43 20.5 -59.5t63.5 -16.5q59 0 101.5 51.5t64.5 129.5h86q-43 -125 -97 -198t-110.5 -111t-110 -48t-94.5 -10 q-84 0 -136 45t-64 133q-23 -35 -53.5 -69.5t-68.5 -61.5t-83 -43t-100 -16q-53 0 -101.5 17.5t-87.5 56t-61.5 101t-22.5 154.5zM311 346q0 -59 11.5 -91t27 -47t32.5 -18.5t32 -3.5q23 0 48 11.5t50 34t43 56.5t29 79l98 460q0 18 -17.5 49t-66.5 31q-66 0 -119 -60.5 t-90 -147.5t-57.5 -184t-20.5 -169z" />
<glyph unicode="e" horiz-adv-x="786" d="M8 313q0 59 12.5 135t38 156t68.5 157t104.5 138.5t143.5 98t186 36.5q68 0 112 -16.5t69.5 -44t34.5 -62t9 -73.5q0 -86 -38.5 -162t-104 -132.5t-150.5 -90t-178 -39.5q-2 -23 -3 -43.5t-1 -38.5q0 -104 37 -138t111 -34q61 0 110 16.5t92.5 44t82 65.5t77.5 81h70 q-43 -72 -98.5 -139.5t-125 -121t-153.5 -86t-186 -32.5q-145 0 -232.5 75.5t-87.5 249.5zM332 512q59 4 113.5 32.5t95.5 74t64.5 104t23.5 119.5q0 39 -11.5 61.5t-39.5 22.5q-39 0 -76 -37t-70 -95.5t-58.5 -132t-41.5 -149.5z" />
<glyph unicode="f" horiz-adv-x="546" d="M-391 -291q0 70 27.5 119t75.5 83t111.5 58.5t137.5 46.5l248 1170q23 111 64.5 178.5t94 105t107.5 51t107 13.5q47 0 90 -15.5t76.5 -45t54 -70.5t20.5 -90q0 -47 -6 -84h-96q2 16 3 28.5t1 26.5q0 35 -23.5 52.5t-54.5 17.5q-16 0 -36.5 -7.5t-41 -25.5t-38 -51 t-27.5 -84l-35 -162h149l-14 -82h-151l-236 -1106q-23 -111 -63.5 -178.5t-92 -105t-105.5 -51t-106 -13.5q-47 0 -90 15.5t-76.5 45t-54 70.5t-20.5 90zM-279 -262q0 -23 24 -45.5t58 -22.5q33 0 65 34t52 126l27 119q-49 -16 -90 -35.5t-71 -44.5t-47.5 -57.5t-17.5 -73.5 z" />
<glyph unicode="g" horiz-adv-x="1038" d="M8 358q0 66 14.5 140.5t43 150.5t71.5 145.5t102.5 123t132 85t163.5 31.5q25 0 52 -3t51 -14t41 -31.5t23 -57.5l21 96h295l-203 -950q94 33 154.5 96t103.5 197h86q-31 -102 -73 -170t-91 -111t-100 -66.5t-98 -35.5l-31 -148q-23 -111 -65 -178.5t-92 -105t-105 -51 t-107 -13.5q-94 0 -161.5 49t-67.5 150q0 63 30.5 112t79 86t107.5 62.5t117 44.5l39 174q-45 -55 -107.5 -96t-152.5 -41q-53 0 -101.5 17t-87.5 56t-61.5 101.5t-22.5 154.5zM281 -285q0 -23 17 -45t52 -22q33 0 66 45t53 137l12 59q-39 -14 -75.5 -31.5t-64.5 -39 t-44 -47t-16 -56.5zM311 387q0 -59 11.5 -91t27 -47.5t32.5 -18.5t32 -3q45 0 101 45t77 136l90 423q-2 18 -19.5 47t-64.5 29q-66 0 -119 -56t-90 -136t-57.5 -170t-20.5 -158z" />
<glyph unicode="h" horiz-adv-x="1034" d="M-43 0l297 1393l303 41l-111 -516q66 74 129.5 94t110.5 20q98 0 162.5 -54t64.5 -177q0 -61 -15 -136t-33.5 -148t-34 -137.5t-15.5 -107.5q0 -39 17.5 -62.5t64.5 -23.5q33 0 58.5 13.5t45 37t36 56.5t32.5 74h86q-43 -127 -92 -202t-100.5 -114t-99.5 -51t-89 -12 q-68 0 -114 19.5t-74.5 52t-41 74.5t-12.5 85q0 51 14.5 122t32 142.5t32 140t14.5 117.5q0 104 -74 105q-55 0 -96 -55.5t-64 -133.5l-139 -657h-295z" />
<glyph unicode="i" horiz-adv-x="546" d="M18 233q0 55 17 134l139 657h295l-147 -696q-8 -35 -9 -66q0 -43 20.5 -59.5t63.5 -16.5q59 0 110.5 51.5t74.5 129.5h86q-43 -125 -100.5 -200t-117 -115t-115.5 -52t-97 -12q-92 0 -156 58t-64 187zM215 1296q0 68 47 116t115 48t116 -48t48 -116t-48.5 -114.5 t-115.5 -46.5q-68 0 -115 46.5t-47 114.5z" />
<glyph unicode="j" horiz-adv-x="491" d="M-379 -313q0 63 31 112t79 86t107.5 62.5t118.5 44.5l219 1032h295l-203 -950q94 33 154.5 96t103.5 197h86q-31 -102 -72.5 -170t-91 -111t-100.5 -66.5t-98 -35.5l-31 -148q-23 -111 -64.5 -178.5t-92 -105t-105.5 -51t-107 -13.5q-94 0 -161.5 49t-67.5 150z M-266 -285q0 -23 17.5 -45t51.5 -22q33 0 66 45t53 137l12 59q-39 -14 -75.5 -31.5t-64 -39t-44 -47t-16.5 -56.5zM199 1298q0 68 47 116t114 48q68 0 116 -48t48 -116t-48 -114.5t-116 -46.5t-114.5 46.5t-46.5 114.5z" />
<glyph unicode="k" horiz-adv-x="1060" d="M-43 0l297 1393l303 41l-154 -721l396 311h202l-409 -285q16 4 33.5 6.5t33.5 2.5q115 0 170.5 -71t55.5 -169q0 -66 -20.5 -126t-20.5 -120q0 -31 16.5 -53.5t63.5 -22.5q33 0 58.5 13.5t45 37t35.5 56.5t33 74h86q-43 -129 -94.5 -205t-102.5 -114t-98 -49t-82 -11 q-127 0 -192.5 60.5t-65.5 172.5q0 72 18.5 134.5t18.5 127.5q0 45 -16.5 72t-57.5 27q-35 0 -72 -20.5t-80 -55.5l-106 -506h-295z" />
<glyph unicode="l" horiz-adv-x="546" d="M18 233q0 55 17 134l219 1026l303 41l-235 -1106q-8 -35 -9 -66q0 -43 20.5 -59.5t63.5 -16.5q59 0 110.5 51.5t74.5 129.5h86q-43 -125 -100.5 -200t-117 -115t-115.5 -52t-97 -12q-92 0 -156 58t-64 187z" />
<glyph unicode="m" horiz-adv-x="1540" d="M-43 0l217 1024h295l-23 -106q66 74 131.5 95t118.5 21q76 0 132.5 -36.5t76.5 -139.5q37 57 76 91t77 52.5t71.5 24.5t62.5 6q98 0 162.5 -54t64.5 -177q0 -61 -15 -136t-33.5 -148t-34 -137.5t-15.5 -107.5q0 -39 17.5 -62.5t64.5 -23.5q33 0 58.5 13.5t45 37t36 56.5 t32.5 74h86q-43 -127 -92 -202t-100.5 -114t-99.5 -51t-89 -12q-68 0 -114 19.5t-74.5 52t-41 74.5t-12.5 85q0 51 14.5 122t32 142.5t31.5 140t14 117.5q0 104 -73 105q-55 0 -96 -55.5t-64 -133.5l-139 -657h-295l149 707q6 25 6 51q0 35 -13 62.5t-48 27.5 q-59 0 -101 -56.5t-65 -134.5l-139 -657h-295z" />
<glyph unicode="n" horiz-adv-x="1034" d="M-43 0l217 1024h295l-23 -106q66 74 129.5 94t110.5 20q98 0 162.5 -54t64.5 -177q0 -61 -15 -136t-33.5 -148t-34 -137.5t-15.5 -107.5q0 -39 17.5 -62.5t64.5 -23.5q33 0 58.5 13.5t45 37t36 56.5t32.5 74h86q-43 -127 -92 -202t-100.5 -114t-99.5 -51t-89 -12 q-68 0 -114 19.5t-74.5 52t-41 74.5t-12.5 85q0 51 14.5 122t32 142.5t32 140t14.5 117.5q0 104 -74 105q-55 0 -96 -55.5t-64 -133.5l-139 -657h-295z" />
<glyph unicode="o" horiz-adv-x="899" d="M6 311q0 59 12.5 135t40 157t70.5 158t105.5 138.5t144.5 98t188 36.5q258 0 262 -321q8 -2 23 -2q35 0 77 10t84 27.5t82 40t72 45.5l19 -56q-59 -63 -154.5 -107t-206.5 -63q-12 -143 -55 -257.5t-108.5 -195.5t-149.5 -124t-178 -43q-72 0 -132.5 17.5t-103.5 56 t-67.5 100t-24.5 149.5zM311 346q0 -51 5.5 -83t17.5 -50t32.5 -25.5t49.5 -7.5q37 0 74.5 32t69.5 88t56.5 134t36.5 168q-33 8 -44 31.5t-11 54.5q0 43 17.5 70.5t46.5 38.5q-4 63 -21.5 88.5t-56.5 25.5q-55 0 -104.5 -60t-86.5 -147.5t-59.5 -184.5t-22.5 -173z" />
<glyph unicode="p" horiz-adv-x="958" d="M-152 -512l342 1612h295l-32 -154q45 39 103 63.5t136 24.5q51 0 97.5 -16.5t80 -54t53 -99t19.5 -153.5q0 -70 -9 -150t-32.5 -161t-61.5 -155.5t-93.5 -131t-132 -91t-175.5 -34.5q-78 0 -117.5 22.5t-56.5 50.5l-106 -499zM297 213q6 -16 24.5 -31.5t53.5 -15.5 q80 0 135 59.5t89 144.5t48.5 180t14.5 167q0 59 -11.5 93t-27 51.5t-33 21.5t-31.5 4q-35 0 -74 -25.5t-67 -75.5z" />
<glyph unicode="q" horiz-adv-x="995" d="M8 317q0 70 14.5 150t43 160t71.5 153.5t102.5 130t132 90t163.5 33.5q25 0 51 -3t49.5 -13t41 -30.5t23.5 -53.5l21 90h295l-311 -1462l-310 -74l129 612q-45 -47 -105.5 -79.5t-137.5 -32.5q-53 0 -101.5 17.5t-87.5 56t-61.5 101t-22.5 154.5zM311 346q0 -59 11.5 -91 t27 -47t32.5 -18.5t32 -3.5q41 0 88 37t71 109l107 506q-4 18 -21.5 43.5t-60.5 25.5q-66 0 -119 -60.5t-90 -147.5t-57.5 -184t-20.5 -169z" />
<glyph unicode="r" horiz-adv-x="770" d="M-43 0l217 1024h295l-29 -129q59 57 124 98t126 41q70 0 105.5 -47t35.5 -106q0 -27 -9 -53.5t-27.5 -48t-46 -35t-64.5 -13.5q-43 0 -58.5 20.5t-21.5 44t-11 44t-28 20.5q-39 0 -73.5 -22.5t-75.5 -59.5l-164 -778h-295z" />
<glyph unicode="s" horiz-adv-x="782" d="M-31 250q0 72 33 121t76 69q86 154 145.5 304.5t106.5 302.5l303 40q8 -199 16 -321.5t14.5 -199.5t10.5 -125t4 -99q0 -45 -8 -78q88 51 147 103h86q-80 -92 -160.5 -153.5t-152.5 -102.5q-33 -35 -72 -57.5t-82 -38t-86 -21.5t-82 -6q-78 0 -134 23.5t-93 60.5 t-54.5 84t-17.5 94zM78 293q0 -72 28.5 -107.5t96.5 -35.5q33 0 65.5 9t57 31.5t40 59.5t15.5 90q0 39 -3 76t-8 88t-12.5 127t-15.5 194q-31 -100 -73 -194t-93 -193q20 -10 33.5 -27t13.5 -44q0 -37 -24.5 -69t-65.5 -32q-16 0 -31.5 5t-23.5 22z" />
<glyph unicode="t" horiz-adv-x="546" d="M18 233q0 55 17 134l123 575h-68l16 82h68l62 283l303 41l-70 -324h123l-17 -82h-122l-131 -614q-8 -35 -9 -66q0 -43 20.5 -59.5t63.5 -16.5q59 0 110.5 51.5t74.5 129.5h86q-43 -125 -100.5 -200t-117 -115t-115.5 -52t-97 -12q-92 0 -156 58t-64 187z" />
<glyph unicode="u" horiz-adv-x="1034" d="M18 233q0 55 17 134l139 657h295l-147 -696q-6 -31 -7 -58q0 -35 13.5 -59.5t48.5 -24.5q59 0 100 51.5t64 129.5l139 657h295l-148 -696q-8 -35 -8 -66q0 -43 20.5 -59.5t63.5 -16.5q59 0 101.5 51.5t64.5 129.5h86q-43 -125 -97 -200t-110.5 -115t-110 -52t-94.5 -12 q-88 0 -140 49t-62 145q-39 -63 -79 -101t-79 -58.5t-76 -27.5t-69 -7q-92 0 -156 58t-64 187z" />
<glyph unicode="v" horiz-adv-x="847" d="M16 229q0 16 2 43t9 56l147 696h295l-147 -696q-10 -47 -11 -74q0 -31 16.5 -49.5t53.5 -18.5q49 0 95 35t86 92.5t72 130t54.5 149.5t34.5 148.5t12 128.5q-4 -10 -28.5 -15t-36.5 -5q-37 0 -55.5 35t-18.5 69q0 47 30.5 79t96.5 32q37 0 61.5 -15.5t40 -40t21.5 -57 t6 -65.5q0 -82 -14.5 -180.5t-44 -198.5t-76.5 -193.5t-111.5 -166t-148.5 -116.5t-189 -44q-117 0 -184.5 59t-67.5 182z" />
<glyph unicode="w" horiz-adv-x="1353" d="M18 233q0 55 17 134l139 657h295l-147 -696q-6 -25 -7 -52q0 -35 13.5 -62.5t48.5 -27.5q59 0 100 51.5t64 129.5l139 657h295l-148 -696q-10 -47 -10 -74q0 -31 16.5 -49.5t53.5 -18.5q49 0 95 35t86 92.5t71.5 130t54.5 149.5t35 148.5t12 128.5q-4 -10 -28.5 -15 t-36.5 -5q-37 0 -55.5 35t-18.5 69q0 47 30.5 79t96.5 32q37 0 61.5 -15.5t40 -40t21.5 -57t6 -65.5q0 -82 -14.5 -180.5t-44 -198.5t-76.5 -193.5t-111.5 -166t-148.5 -116.5t-189 -44q-100 0 -163.5 43t-82.5 129q-37 -55 -75.5 -89t-76.5 -52.5t-73 -24.5t-65 -6 q-92 0 -156 58t-64 187z" />
<glyph unicode="x" horiz-adv-x="1069" d="M35 367q25 113 64.5 231.5t98 215.5t138.5 158.5t182 61.5q61 0 102.5 -23.5t66 -59.5t36.5 -79t16 -81l19 -156q86 96 130 166.5t48 128.5q-10 -2 -18.5 -3t-16.5 -1q-53 0 -74.5 33.5t-21.5 80.5q0 53 42 77t97 24q29 0 50.5 -16.5t35.5 -43t21.5 -60.5t7.5 -67 q0 -49 -17.5 -95t-53.5 -98t-89 -113.5t-125 -139.5l19 -143q12 -100 42.5 -139.5t84.5 -39.5q59 0 110 51.5t74 129.5h86q-41 -119 -95.5 -193t-110.5 -116t-111.5 -56t-100.5 -14q-92 0 -155.5 84t-94.5 272l-282 -344h-148l414 467l-33 229q-16 102 -33.5 136t-44.5 34 q-31 0 -66.5 -30.5t-73.5 -92t-73 -155.5t-61 -221h-86z" />
<glyph unicode="y" horiz-adv-x="995" d="M18 233q0 55 17 134l139 657h295l-147 -696q-6 -25 -7 -52q0 -35 13.5 -62.5t48.5 -27.5q57 0 97 48.5t63 119.5l143 670h295l-203 -950q94 33 154.5 96t103.5 197h86q-31 -102 -73 -170t-91 -111t-100 -66.5t-98 -35.5l-31 -148q-23 -111 -65 -178.5t-92 -105t-105 -51 t-107 -13.5q-94 0 -161.5 49t-67.5 150q0 63 30.5 112t79 86t107.5 62.5t117 44.5l24 110q-66 -72 -129 -93t-116 -21q-92 0 -156 58t-64 187zM238 -285q0 -23 17 -45t52 -22q33 0 66 45t53 137l12 59q-39 -14 -75.5 -31.5t-64.5 -39t-44 -47t-16 -56.5z" />
<glyph unicode="z" horiz-adv-x="876" d="M35 0l522 913h-115q-47 0 -79.5 -5t-32.5 -27q0 -4 3 -5.5t8 -4.5t8 -10t3 -25q0 -57 -34.5 -83t-75.5 -26q-35 0 -65 22.5t-30 67.5q0 31 16.5 68t47.5 67.5t75 51t99 20.5h526l-501 -866q27 -2 70.5 -7.5t84.5 -5.5q37 0 65 8t32 33q-20 2 -29.5 14.5t-9.5 28.5 q0 29 28.5 58.5t85.5 29.5q47 0 68.5 -28.5t21.5 -69.5q0 -35 -16 -74t-49 -71.5t-79 -53t-105 -20.5h-543z" />
<glyph unicode="{" horiz-adv-x="589" d="M-14 -287q0 86 28.5 175t64.5 178.5t64.5 174.5t28.5 162q0 29 -17.5 46.5t-66.5 17.5q-27 0 -65 -6l24 117q37 -6 64 -7q49 0 75.5 21.5t41 55.5t17.5 74t3 77q0 86 -7.5 167t-7.5 158q0 57 19.5 129t62.5 135.5t114 105.5t173 42h88l-18 -102q-63 0 -107.5 -8.5 t-79.5 -45.5q-55 -61 -74.5 -129.5t-19.5 -152.5q0 -88 6 -175t6 -175q0 -90 -22.5 -143.5t-58.5 -84.5q25 -29 24 -74q0 -68 -28.5 -156.5t-63.5 -184t-63.5 -189.5t-28.5 -170q0 -39 3 -68.5t20.5 -51t52 -33t98.5 -11.5l-19 -92h-59q-135 0 -203.5 60.5t-68.5 162.5z" />
<glyph unicode="|" horiz-adv-x="643" d="M195 -512v2050h190v-2050h-190z" />
<glyph unicode="}" horiz-adv-x="587" d="M-164 -510l19 102q63 0 107 8.5t79 45.5q55 61 74.5 129.5t19.5 152.5q0 88 -6 175t-6 176q0 90 22.5 143t59.5 84q-25 29 -25 74q0 68 29 156.5t63.5 184t63.5 188.5t29 171q0 39 -4.5 68.5t-20.5 51t-51 33t-99 11.5l19 92h59q135 0 204 -60.5t69 -162.5 q0 -86 -29 -175t-64.5 -178.5t-64.5 -174.5t-29 -162q0 -29 17.5 -46.5t66.5 -17.5q25 0 66 6l-25 -116q-37 6 -63 6q-49 0 -76 -21.5t-41 -55.5t-17 -74t-3 -77q0 -86 7 -166.5t7 -158.5q0 -59 -19.5 -130t-62.5 -134.5t-113.5 -105.5t-173.5 -42h-88z" />
<glyph unicode="~" horiz-adv-x="903" d="M176 1192q49 98 137 149.5t205 51.5q55 0 98 -10.5t82 -23.5t76 -23.5t82 -10.5q39 0 73 12.5t56 34.5l12 -2q-8 -37 -38.5 -72.5t-75.5 -65.5t-101.5 -48.5t-113.5 -18.5q-51 0 -95.5 12.5t-85.5 26t-80.5 25.5t-82.5 12q-78 0 -136 -53z" />
<glyph unicode="&#xa1;" horiz-adv-x="530" d="M-125 -508l266 961h174l-145 -961h-295zM121 762q0 68 47 116t115 48t115.5 -48.5t47.5 -115.5q0 -68 -48 -115t-115 -47q-68 0 -115 47t-47 115z" />
<glyph unicode="&#xa2;" horiz-adv-x="800" d="M70 647q0 104 27.5 200.5t81.5 174.5t133 130t184 67l45 251h118l-55 -249q37 -2 70 -10.5t58.5 -25t40.5 -42t15 -62.5q0 -16 -2 -31.5t-8 -35.5h-116q10 37 10 57q0 37 -20.5 53.5t-55.5 16.5h-10l-156 -703q10 -2 31 -2q82 0 146.5 43t123.5 96 q-23 -129 -101.5 -200.5t-230.5 -77.5l-77 -352h-56l64 354q-53 8 -100.5 33.5t-83 69.5t-56 105.5t-20.5 139.5zM285 653q0 -51 17 -102t58 -82l113 625q-41 -33 -76 -82t-59.5 -108.5t-38.5 -124.5t-14 -126z" />
<glyph unicode="&#xa3;" horiz-adv-x="999" d="M51 686q35 70 89.5 115t125.5 67l148 605l307 63l-164 -678q43 -14 84 -26.5t90 -12.5q39 0 73 12.5t56 34.5l12 -2q-8 -37 -38.5 -72.5t-75.5 -65.5t-101.5 -48.5t-113.5 -18.5h-33l-115 -473q53 6 104.5 6.5t107 8.5t120 34.5t147.5 88.5q-16 -147 -72.5 -235.5 t-139.5 -88.5h-605l176 733q-8 0 -16 1t-18 1q-78 0 -136 -53z" />
<glyph unicode="&#xa4;" horiz-adv-x="980" d="M121 1008l78 73l114 -114q84 61 187 61q51 0 97 -15.5t85 -43.5l115 114l73 -73l-112 -113q61 -84 61 -188q0 -102 -61 -187l112 -112l-73 -74l-113 113q-39 -29 -85 -44.5t-99 -15.5q-104 0 -189 62l-114 -115l-74 74l115 114q-29 39 -44.5 85t-15.5 98q0 53 15.5 99 t44.5 85zM295 709q0 -86 59.5 -145.5t145.5 -59.5t145.5 59.5t59.5 145.5t-59.5 145t-145.5 59t-145.5 -59t-59.5 -145z" />
<glyph unicode="&#xa5;" horiz-adv-x="1142" d="M172 291l29 102h196l29 133h-203l29 103h197l-230 907h336l180 -739l307 739h136l-402 -907h268l-28 -103h-262l-29 -133h268l-28 -102h-263l-61 -291h-328l62 291h-203z" />
<glyph unicode="&#xa6;" horiz-adv-x="651" d="M199 455h190v-967h-190v967zM199 616v922h190v-922h-190z" />
<glyph unicode="&#xa7;" horiz-adv-x="1067" d="M-23 158q0 113 56.5 182.5t140.5 69.5q61 0 98 -34t64 -69q-92 -8 -129 -43t-37 -112q0 -78 37 -119t121 -41t129 45t45 151q0 84 -28 145.5t-68.5 108.5t-88 86t-88.5 81t-68.5 90.5t-27.5 115.5q0 98 60.5 172t152.5 109q-10 45 -10 86q0 92 39 158.5t100.5 109.5 t139 64.5t155.5 21.5q29 0 74 -5t88 -24.5t73.5 -58.5t30.5 -107q0 -72 -35.5 -118.5t-99.5 -46.5q-18 0 -37.5 6t-38.5 26q35 20 54.5 60.5t19.5 81.5q0 43 -27.5 76.5t-87.5 33.5q-41 0 -76.5 -18.5t-61 -48t-40 -69.5t-14.5 -83q0 -63 29.5 -110.5t74.5 -88.5t98.5 -79.5 t98.5 -87t74.5 -109.5t29.5 -145q0 -59 -15 -115.5t-46 -103t-75 -79t-101 -44.5q0 -180 -117 -285t-328 -105q-45 0 -103 8.5t-110.5 36t-88.5 81t-36 143.5zM350 924q0 -43 24.5 -80t63.5 -75t86 -77t91 -86t80 -103.5t53 -127.5q38 49 38 129q0 88 -45 150.5 t-108.5 114.5t-131 104.5t-112.5 121.5q-16 -10 -27.5 -26.5t-11.5 -44.5z" />
<glyph unicode="&#xa8;" horiz-adv-x="802" d="M115 1298q0 51 35.5 88t89.5 37q51 0 88 -36.5t37 -88.5q0 -53 -37 -88.5t-88 -35.5q-53 0 -89 35.5t-36 88.5zM483 1298q0 51 36 88t89 37q51 0 88 -36.5t37 -88.5q0 -53 -37 -88.5t-88 -35.5q-53 0 -89 35.5t-36 88.5z" />
<glyph unicode="&#xa9;" horiz-adv-x="1155" d="M86 678q0 111 39 206t106.5 165.5t157.5 111.5t193 41q100 0 190 -40t157.5 -110.5t107.5 -165.5t40 -206t-40 -206t-107.5 -165.5t-157.5 -111.5t-190 -41q-102 0 -192.5 41t-158 111.5t-106.5 165.5t-39 204zM180 678q0 -92 32 -172t87 -138.5t129 -92t158 -33.5 q82 0 155.5 33.5t129 92t87 138.5t31.5 172t-31.5 172t-87 138.5t-129 92t-155.5 33.5q-84 0 -158 -33.5t-129 -92t-87 -138.5t-32 -172zM293 688q0 70 26.5 125t69.5 95t98.5 61.5t110.5 21.5q80 0 150.5 -47t101.5 -147l-96 -37q-10 61 -58.5 92t-103.5 31 q-35 0 -69 -11.5t-59.5 -35t-41.5 -58.5t-16 -80q0 -47 15 -87t40.5 -68.5t61.5 -46t77 -17.5q47 0 89 24.5t65 67.5l90 -59q-43 -66 -109.5 -102.5t-142.5 -36.5q-61 0 -116.5 25.5t-95.5 68.5t-63.5 100.5t-23.5 120.5z" />
<glyph unicode="&#xaa;" horiz-adv-x="729" d="M195 1141q0 59 18 126.5t54 125t90.5 95.5t127.5 38q41 0 64.5 -10.5t40.5 -26.5l6 27h170l-86 -377q-6 -29 -6 -39q0 -16 9 -27.5t34 -11.5h14t17 4q-12 -37 -27.5 -57.5t-31 -30.5t-30 -12t-26.5 -2q-61 0 -85 28.5t-32 81.5q-27 -41 -72 -79t-110 -38 q-78 0 -108.5 54.5t-30.5 130.5zM354 1157q0 -66 20.5 -87t39.5 -21q29 0 55.5 30.5t42.5 69.5l66 285q-16 12 -32 17t-28 5q-35 0 -64.5 -28.5t-52 -73.5t-35 -97.5t-12.5 -99.5z" />
<glyph unicode="&#xab;" horiz-adv-x="1056" d="M16 520l443 400l86 -93l-359 -309l281 -287l-82 -90zM442 520l443 400l86 -93l-359 -309l281 -287l-82 -90z" />
<glyph unicode="&#xac;" horiz-adv-x="956" d="M41 455l37 161h741l-104 -512h-232l72 351h-514z" />
<glyph unicode="&#xad;" horiz-adv-x="657" d="M80 455l37 161h409l-34 -161h-412z" />
<glyph unicode="&#xae;" horiz-adv-x="1155" d="M88 684q0 111 39 206t106.5 165.5t157.5 111.5t193 41q100 0 190 -40t157.5 -110.5t107.5 -165.5t40 -206t-40 -206t-107.5 -165.5t-157.5 -111.5t-190 -41q-102 0 -192.5 41t-158 111.5t-106.5 165.5t-39 204zM182 684q0 -92 32 -172t87 -138.5t129 -92t158 -33.5 q82 0 155.5 33.5t129 92t87 138.5t31.5 172t-31.5 172t-87 138.5t-129 92t-155.5 33.5q-84 0 -158 -33.5t-129 -92t-87 -138.5t-32 -172zM387 393l2 596h199q109 0 167 -44t58 -128q0 -57 -34 -99t-87 -59l133 -256l-96 -14l-127 256h-121v-252h-94zM481 723h92q23 0 48.5 3 t47 13.5t36 27.5t14.5 46q0 53 -37 72.5t-88 19.5h-113v-182z" />
<glyph unicode="&#xb0;" horiz-adv-x="655" d="M172 999q0 90 22.5 170t65.5 139.5t104.5 94.5t139.5 35q90 0 129 -59.5t39 -172.5q0 -66 -19.5 -142.5t-58.5 -143t-95.5 -110.5t-129.5 -44q-59 0 -98.5 15.5t-61 46t-29.5 73.5t-8 98zM319 975q0 -49 10.5 -91t45.5 -42q41 0 72.5 32.5t54 87t35 126t12.5 149.5 q0 53 -9.5 91t-41.5 38q-23 0 -49.5 -19.5t-53 -57.5t-46 -95t-25.5 -131q-2 -18 -3.5 -41t-1.5 -47z" />
<glyph unicode="&#xb1;" horiz-adv-x="980" d="M4 139l37 162h752l-35 -162h-754zM111 633l49 229h262l55 250h232l-56 -250h260l-47 -229h-262l-55 -252h-232l56 252h-262z" />
<glyph unicode="&#xb2;" horiz-adv-x="714" d="M141 739q0 59 29 110.5t73 98.5t94 93t94 98.5t72.5 112t28.5 132.5q0 41 -22.5 66t-48.5 25q-59 0 -77.5 -24t-18.5 -65q0 -20 10 -44.5t35 -30.5q-45 -39 -93 -39q-35 0 -59.5 25.5t-24.5 74.5q0 29 13.5 57.5t42 52t76 38t114.5 14.5q123 0 174.5 -48t51.5 -128 q0 -92 -52.5 -162t-123 -128t-141.5 -109.5t-107 -106.5h8q57 0 114.5 -10.5t116.5 -10.5q57 0 85 20.5t69 57.5q0 -53 -2 -93t-16.5 -67.5t-43 -41t-80.5 -13.5q-49 0 -83.5 6.5t-65.5 14.5t-64.5 14t-78.5 6q-23 0 -50.5 -13t-44.5 -20q-2 10 -3 18.5t-1 18.5z" />
<glyph unicode="&#xb3;" horiz-adv-x="716" d="M137 879q0 78 36 123t106 45q82 -1 96 -56q-37 -4 -57.5 -16t-31 -30.5t-13.5 -41t-3 -43.5q0 -55 29 -72.5t76 -17.5q33 0 59.5 16.5t46 43t29.5 61.5t10 72q0 63 -35.5 121.5t-117.5 84.5q51 12 89 37t63.5 55.5t37.5 64.5t12 63q0 37 -19.5 61.5t-55.5 24.5 q-59 0 -83 -24t-24 -65q0 -20 10.5 -44.5t34.5 -30.5q-45 -39 -92 -39q-35 0 -59.5 25.5t-24.5 74.5q0 29 15.5 57.5t46 52t78.5 38t116 14.5q104 0 156.5 -48t52.5 -114q0 -55 -39 -110.5t-123 -94.5q78 -23 113 -71.5t35 -108.5q0 -49 -22.5 -100t-63.5 -93t-97.5 -68 t-122.5 -26q-37 0 -82 5.5t-85.5 24t-68.5 54t-28 95.5z" />
<glyph unicode="&#xb4;" horiz-adv-x="647" d="M246 1149l186 387h215l-248 -387h-153z" />
<glyph unicode="&#xb5;" horiz-adv-x="1034" d="M-115 -340l289 1364h295l-147 -696q-6 -25 -7 -52q0 -35 13.5 -62.5t48.5 -27.5q59 0 100 51.5t64 129.5l139 657h295l-148 -696q-8 -35 -8 -66q0 -43 20.5 -59.5t63.5 -16.5q59 0 101.5 51.5t64.5 129.5h86q-43 -125 -97 -198t-110.5 -111t-110 -48t-94.5 -10 q-86 0 -138 46t-62 138q-37 -59 -76 -94t-77 -55.5t-73.5 -27.5t-66.5 -7l-55 -266z" />
<glyph unicode="&#xb6;" horiz-adv-x="1062" d="M133 1006q0 94 33 189t97.5 170t159.5 122t222 47q76 0 145.5 -18.5t121 -58.5t82 -104.5t30.5 -156.5q0 -35 -4 -70.5t-12 -76.5l-260 -1215h-193l166 778q-23 -8 -44.5 -13t-43.5 -9l-158 -756h-192l157 756q-78 14 -135 54t-96 96.5t-57.5 125t-18.5 140.5zM655 694 h13q41 0 71 8l99 465q12 57 12 101q0 47 -12.5 77.5t-34.5 51.5z" />
<glyph unicode="&#xb7;" horiz-adv-x="575" d="M68 547q0 41 15 76.5t42 63.5t62.5 43t76.5 15t77 -15t63.5 -43t43 -63.5t15.5 -76.5t-15.5 -77t-43 -62.5t-63.5 -42t-77 -15.5q-82 0 -139 57.5t-57 139.5z" />
<glyph unicode="&#xb8;" horiz-adv-x="464" d="M0 -389q14 25 33.5 45t48.5 20q31 0 50.5 -8t34.5 -19t29.5 -19.5t36.5 -8.5q27 0 44.5 26.5t17.5 59.5q0 29 -18.5 51.5t-61.5 22.5q-41 0 -65.5 -8.5t-40.5 -16.5l108 303l72 -47l-60 -147q66 16 109 16q66 0 96.5 -27.5t30.5 -74.5q0 -55 -21.5 -97t-56.5 -71t-79 -43 t-89 -14q-78 0 -126 17t-93 40z" />
<glyph unicode="&#xb9;" horiz-adv-x="464" d="M166 707l158 690h-113l14 51q49 0 121 13.5t180 72.5l-188 -827h-172z" />
<glyph unicode="&#xba;" horiz-adv-x="632" d="M199 1137q0 100 25.5 173.5t68.5 122t99.5 71t117.5 22.5q43 0 78 -13.5t35 -35.5q0 -25 -17.5 -36t-36.5 -18q-16 39 -53 39q-43 0 -73.5 -36.5t-50 -88t-28 -104.5t-8.5 -86q0 -49 23.5 -66.5t60.5 -17.5q27 0 48.5 20.5t36 52t23.5 71.5t13 77q-31 8 -31 45 q0 29 26 56.5t54 27.5q23 0 31 -8t8 -31q23 14 35 28.5t33 37.5l12 -23q-10 -29 -27.5 -62.5t-52.5 -54.5q-4 -86 -30.5 -150.5t-64.5 -108.5t-83 -65.5t-86 -21.5q-96 0 -141 42t-45 141z" />
<glyph unicode="&#xbb;" horiz-adv-x="1062" d="M35 233l358 310l-280 286l82 91l368 -379l-442 -400zM461 233l358 310l-280 286l82 91l368 -379l-442 -400z" />
<glyph unicode="&#xbc;" horiz-adv-x="1384" d="M100 461l158 690h-113l15 51q49 0 120.5 13.5t180.5 72.5l-189 -827h-172zM242 -338l540 1874h148l-541 -1874h-147zM723 307q14 45 44 99.5t57.5 114t49 120.5t21.5 123q0 37 -8 67q53 0 93 -25.5t40 -78.5t-18.5 -98t-46 -86t-57.5 -79t-52 -77h184l96 422l177 22 l-103 -444h78l-25 -80h-71l-70 -305h-170l70 305h-289z" />
<glyph unicode="&#xbd;" horiz-adv-x="1400" d="M100 461l158 690h-113l15 51q49 0 120.5 13.5t180.5 72.5l-189 -827h-172zM231 -338l541 1874h148l-541 -1874h-148zM707 43q0 61 28.5 111.5t72.5 97.5t94 93t94 98.5t73 111.5t29 133q0 41 -22.5 65.5t-49.5 24.5q-59 0 -77.5 -23.5t-18.5 -64.5q0 -20 10 -44.5 t35 -31.5q-45 -39 -92 -39q-35 0 -59.5 26t-24.5 75q0 29 13 57.5t42 52t76 38t114 14.5q123 0 174.5 -48.5t51.5 -127.5q0 -92 -52.5 -162t-123 -128.5t-141 -109.5t-107.5 -106h8q57 0 114.5 -10.5t116.5 -10.5q57 0 85 20.5t69 57.5q0 -53 -2 -93t-16.5 -67.5t-43 -41 t-79.5 -13.5q-49 0 -84 6t-65.5 14.5t-64.5 14.5t-79 6q-23 0 -50.5 -13.5t-43.5 -19.5q-2 10 -3 18.5t-1 18.5z" />
<glyph unicode="&#xbe;" horiz-adv-x="1593" d="M51 633q0 78 36 123t106 45q82 -1 96 -56q-37 -4 -57.5 -16t-31 -30.5t-13.5 -41t-3 -43.5q0 -55 29 -72.5t76 -17.5q33 0 59.5 16.5t46 43t29.5 61.5t10 72q0 63 -36 121.5t-117 85.5q51 12 89 36.5t63.5 55.5t37.5 64.5t12 62.5q0 37 -19.5 61.5t-55.5 24.5 q-59 0 -83 -23.5t-24 -64.5q0 -20 10.5 -45t34.5 -31q-45 -39 -92 -39q-35 0 -59.5 25.5t-24.5 74.5q0 29 15.5 57.5t46 52.5t78.5 38t116 14q104 0 156.5 -48t52.5 -114q0 -55 -39 -110t-123 -94q78 -23 113 -72t35 -109q0 -49 -23 -100t-63.5 -93t-97 -67.5t-122.5 -25.5 q-37 0 -82 5t-86 23.5t-68.5 54t-27.5 95.5zM449 -338l540 1874h148l-541 -1874h-147zM936 307q14 45 44 99.5t57.5 114t49 120.5t21.5 123q0 37 -8 67q53 0 93 -25.5t40 -78.5t-18.5 -98t-46 -86t-57.5 -79t-52 -77h184l96 422l177 22l-103 -444h78l-25 -80h-71l-70 -305 h-170l70 305h-289z" />
<glyph unicode="&#xbf;" horiz-adv-x="854" d="M-131 -244q0 88 29.5 152.5t75.5 118t103.5 98.5t112 93t100.5 104.5t70 130.5h136q0 -70 -29 -128.5t-71 -109.5t-92 -100t-92 -102.5t-70.5 -115t-28.5 -135.5q0 -92 38.5 -124.5t81.5 -32.5q31 0 61 12t53.5 33.5t37.5 53.5t14 69t-17 81t-60 56q27 43 66.5 64.5 t82.5 21.5q59 0 107.5 -43t48.5 -129q0 -53 -22.5 -110.5t-75 -106.5t-136.5 -81t-207 -32q-94 0 -155.5 19.5t-97 54.5t-50 83t-14.5 105zM315 764q0 68 47.5 116t114.5 48q68 0 116 -48.5t48 -115.5q0 -68 -48 -115t-116 -47t-115 47t-47 115z" />
<glyph unicode="&#xc0;" horiz-adv-x="1234" d="M-80 686q0 51 32 97t87 81t131 54.5t164 19.5q45 0 110 -6q78 123 165 232.5t179.5 192.5t186.5 131t186 48q31 0 76 -6t82 -23l-322 -1507h-295l158 743q-78 35 -142.5 51.5t-131.5 22.5q-57 -125 -106.5 -257t-84.5 -255t-55.5 -230.5t-20.5 -185.5q0 -59 9.5 -83.5 t19.5 -38.5q-41 0 -89 4t-89 24.5t-68.5 64.5t-27.5 124q0 70 21.5 164t61.5 203.5t95 229t123 236.5q-96 -6 -157.5 -29.5t-82.5 -76.5q8 0 17.5 -20.5t9.5 -43.5q0 -37 -34 -58.5t-81 -21.5q-53 0 -90 30t-37 89zM629 905q63 -12 126.5 -29.5t123.5 -41.5l118 557 q-92 -49 -187 -181.5t-181 -304.5zM797 2048h215l59 -387h-153z" />
<glyph unicode="&#xc1;" horiz-adv-x="1234" d="M-80 686q0 51 32 97t87 81t131 54.5t164 19.5q45 0 110 -6q78 123 165 232.5t179.5 192.5t186.5 131t186 48q31 0 76 -6t82 -23l-322 -1507h-295l158 743q-78 35 -142.5 51.5t-131.5 22.5q-57 -125 -106.5 -257t-84.5 -255t-55.5 -230.5t-20.5 -185.5q0 -59 9.5 -83.5 t19.5 -38.5q-41 0 -89 4t-89 24.5t-68.5 64.5t-27.5 124q0 70 21.5 164t61.5 203.5t95 229t123 236.5q-96 -6 -157.5 -29.5t-82.5 -76.5q8 0 17.5 -20.5t9.5 -43.5q0 -37 -34 -58.5t-81 -21.5q-53 0 -90 30t-37 89zM629 905q63 -12 126.5 -29.5t123.5 -41.5l118 557 q-92 -49 -187 -181.5t-181 -304.5zM897 1661l186 387h215l-247 -387h-154z" />
<glyph unicode="&#xc2;" horiz-adv-x="1234" d="M-80 686q0 51 32 97t87 81t131 54.5t164 19.5q45 0 110 -6q78 123 165 232.5t179.5 192.5t186.5 131t186 48q31 0 76 -6t82 -23l-322 -1507h-295l158 743q-78 35 -142.5 51.5t-131.5 22.5q-57 -125 -106.5 -257t-84.5 -255t-55.5 -230.5t-20.5 -185.5q0 -59 9.5 -83.5 t19.5 -38.5q-41 0 -89 4t-89 24.5t-68.5 64.5t-27.5 124q0 70 21.5 164t61.5 203.5t95 229t123 236.5q-96 -6 -157.5 -29.5t-82.5 -76.5q8 0 17.5 -20.5t9.5 -43.5q0 -37 -34 -58.5t-81 -21.5q-53 0 -90 30t-37 89zM629 905q63 -12 126.5 -29.5t123.5 -41.5l118 557 q-92 -49 -187 -181.5t-181 -304.5zM735 1661l434 387h43l123 -387h-65l-123 164l-322 -164h-90z" />
<glyph unicode="&#xc3;" horiz-adv-x="1234" d="M-80 686q0 51 32 97t87 81t131 54.5t164 19.5q45 0 110 -6q78 123 165 232.5t179.5 192.5t186.5 131t186 48q31 0 76 -6t82 -23l-322 -1507h-295l158 743q-78 35 -142.5 51.5t-131.5 22.5q-57 -125 -106.5 -257t-84.5 -255t-55.5 -230.5t-20.5 -185.5q0 -59 9.5 -83.5 t19.5 -38.5q-41 0 -89 4t-89 24.5t-68.5 64.5t-27.5 124q0 70 21.5 164t61.5 203.5t95 229t123 236.5q-96 -6 -157.5 -29.5t-82.5 -76.5q8 0 17.5 -20.5t9.5 -43.5q0 -37 -34 -58.5t-81 -21.5q-53 0 -90 30t-37 89zM629 905q63 -12 126.5 -29.5t123.5 -41.5l118 557 q-92 -49 -187 -181.5t-181 -304.5zM739 1704q49 98 137.5 149.5t204.5 51.5q55 0 98.5 -10.5t82 -23.5t75.5 -23.5t82 -10.5q39 0 73 12.5t56 34.5l13 -2q-8 -37 -39 -72.5t-76 -65.5t-101.5 -48.5t-113.5 -18.5q-51 0 -95 12.5t-85 26t-81 25.5t-83 12q-78 0 -135 -53z" />
<glyph unicode="&#xc4;" horiz-adv-x="1234" d="M-80 686q0 51 32 97t87 81t131 54.5t164 19.5q45 0 110 -6q78 123 165 232.5t179.5 192.5t186.5 131t186 48q31 0 76 -6t82 -23l-322 -1507h-295l158 743q-78 35 -142.5 51.5t-131.5 22.5q-57 -125 -106.5 -257t-84.5 -255t-55.5 -230.5t-20.5 -185.5q0 -59 9.5 -83.5 t19.5 -38.5q-41 0 -89 4t-89 24.5t-68.5 64.5t-27.5 124q0 70 21.5 164t61.5 203.5t95 229t123 236.5q-96 -6 -157.5 -29.5t-82.5 -76.5q8 0 17.5 -20.5t9.5 -43.5q0 -37 -34 -58.5t-81 -21.5q-53 0 -90 30t-37 89zM629 905q63 -12 126.5 -29.5t123.5 -41.5l118 557 q-92 -49 -187 -181.5t-181 -304.5zM782 1810q0 51 36 88t89 37q51 0 88 -36.5t37 -88.5q0 -53 -37 -88.5t-88 -35.5q-53 0 -89 35.5t-36 88.5zM1151 1810q0 51 36 88t89 37q51 0 88 -36.5t37 -88.5q0 -53 -37 -88.5t-88 -35.5q-53 0 -89 35.5t-36 88.5z" />
<glyph unicode="&#xc5;" horiz-adv-x="1234" d="M-80 686q0 51 32 97t87 81t131 54.5t164 19.5q45 0 110 -6q78 123 165 232.5t179.5 192.5t186.5 131t186 48q31 0 76 -6t82 -23l-322 -1507h-295l158 743q-78 35 -142.5 51.5t-131.5 22.5q-57 -125 -106.5 -257t-84.5 -255t-55.5 -230.5t-20.5 -185.5q0 -59 9.5 -83.5 t19.5 -38.5q-41 0 -89 4t-89 24.5t-68.5 64.5t-27.5 124q0 70 21.5 164t61.5 203.5t95 229t123 236.5q-96 -6 -157.5 -29.5t-82.5 -76.5q8 0 17.5 -20.5t9.5 -43.5q0 -37 -34 -58.5t-81 -21.5q-53 0 -90 30t-37 89zM629 905q63 -12 126.5 -29.5t123.5 -41.5l118 557 q-92 -49 -187 -181.5t-181 -304.5zM895 1786q0 27 10 59.5t30.5 61t53.5 47t80 18.5q76 0 112 -46t36 -111q0 -68 -41 -120.5t-138 -52.5q-66 0 -104.5 42t-38.5 102zM977 1790q0 -35 16.5 -55.5t53.5 -20.5q47 0 70.5 25.5t23.5 68.5q0 14 -1 32t-8.5 32t-20.5 23.5 t-38 9.5q-53 0 -74.5 -38t-21.5 -77z" />
<glyph unicode="&#xc6;" horiz-adv-x="1724" d="M31 696q0 47 32.5 90t88 75t127 51.5t151.5 19.5q53 0 121 -6q78 125 165 235.5t179 194.5t186.5 133t184.5 49q43 0 85 -6t87 -14.5t94 -14.5t102 -6t112.5 8t127.5 31q-10 -33 -22.5 -73t-35 -73.5t-60.5 -56t-101 -22.5q-78 0 -136.5 21.5t-117.5 43.5l-111 -518h318 l-41 -151h-310l-104 -490h459l-43 -217h-756l158 743q-78 35 -144.5 52.5t-132.5 21.5q-57 -125 -105 -256t-84 -255t-55.5 -233.5t-19.5 -189.5q0 -39 4 -59.5t9.5 -30.5t10.5 -14t5 -10q-53 2 -102.5 8t-88.5 27.5t-61.5 66.5t-22.5 127q0 66 21.5 158t61.5 200.5 t95.5 226t122.5 234.5q-92 -6 -154.5 -28.5t-84.5 -77.5q8 0 17 -20.5t9 -43.5q0 -33 -29.5 -56.5t-95.5 -23.5q-45 0 -80.5 30t-35.5 99zM735 903q66 -12 130.5 -29.5t123.5 -39.5l119 557q-94 -51 -190.5 -182.5t-182.5 -305.5z" />
<glyph unicode="&#xc7;" horiz-adv-x="1038" d="M92 469q0 92 15.5 208t50.5 233.5t90 230t135 201t187.5 141.5t244.5 53q68 0 129.5 -15.5t106.5 -48t71.5 -86t26.5 -129.5q0 -78 -33 -131t-110 -53q-25 0 -56.5 9.5t-60.5 43.5q37 18 65.5 74.5t28.5 112.5q0 51 -28.5 89t-88.5 38q-59 0 -114.5 -42t-103.5 -113 t-88 -166t-68.5 -200.5t-44 -216t-15.5 -213.5q0 -74 10.5 -135t37 -106t74.5 -69.5t122 -24.5q117 0 223.5 58t177.5 157l47 -21q-37 -82 -92 -146.5t-123.5 -112.5t-146.5 -76.5t-160 -39.5l-43 -108q66 16 109 16q66 0 96.5 -27.5t30.5 -74.5q0 -55 -21.5 -97t-56.5 -71 t-79 -43t-89 -14q-78 0 -126 17t-93 40q14 25 33.5 45t48.5 20q31 0 50 -8t34.5 -19t30 -19.5t36.5 -8.5q27 0 44.5 26.5t17.5 59.5q0 29 -18.5 51.5t-61.5 22.5q-41 0 -65.5 -8.5t-41.5 -16.5l76 211q-201 0 -311.5 120t-110.5 382z" />
<glyph unicode="&#xc8;" horiz-adv-x="919" d="M27 324q0 80 25.5 164.5t74.5 158.5t119.5 129t159.5 78q-66 47 -95.5 111.5t-29.5 134.5q0 80 32.5 157.5t93 141t142.5 102.5t180 39q61 0 114.5 -16.5t93.5 -49t62.5 -79.5t22.5 -111q0 -92 -45 -152.5t-107 -60.5q-55 0 -96 55q18 6 34.5 24.5t29 44.5t19.5 54.5 t7 55.5q0 63 -35.5 88.5t-76.5 25.5q-45 0 -84 -24.5t-67 -65.5t-43 -93t-15 -106q0 -45 11 -88t36.5 -79.5t64.5 -64.5t95 -42q-82 -18 -150 -70.5t-116 -122t-74.5 -148.5t-26.5 -148q0 -86 45 -146.5t150 -60.5q47 0 101 13t106.5 40t97.5 65.5t73 90.5l48 -21 q-41 -90 -104.5 -161.5t-143.5 -121t-170 -76t-183 -26.5q-98 0 -169.5 30t-117.5 79t-67.5 114.5t-21.5 137.5zM528 2048h215l60 -387h-154z" />
<glyph unicode="&#xc9;" horiz-adv-x="919" d="M27 324q0 80 25.5 164.5t74.5 158.5t119.5 129t159.5 78q-66 47 -95.5 111.5t-29.5 134.5q0 80 32.5 157.5t93 141t142.5 102.5t180 39q61 0 114.5 -16.5t93.5 -49t62.5 -79.5t22.5 -111q0 -92 -45 -152.5t-107 -60.5q-55 0 -96 55q18 6 34.5 24.5t29 44.5t19.5 54.5 t7 55.5q0 63 -35.5 88.5t-76.5 25.5q-45 0 -84 -24.5t-67 -65.5t-43 -93t-15 -106q0 -45 11 -88t36.5 -79.5t64.5 -64.5t95 -42q-82 -18 -150 -70.5t-116 -122t-74.5 -148.5t-26.5 -148q0 -86 45 -146.5t150 -60.5q47 0 101 13t106.5 40t97.5 65.5t73 90.5l48 -21 q-41 -90 -104.5 -161.5t-143.5 -121t-170 -76t-183 -26.5q-98 0 -169.5 30t-117.5 79t-67.5 114.5t-21.5 137.5zM727 1661l186 387h215l-247 -387h-154z" />
<glyph unicode="&#xca;" horiz-adv-x="919" d="M27 324q0 80 25.5 164.5t74.5 158.5t119.5 129t159.5 78q-66 47 -95.5 111.5t-29.5 134.5q0 80 32.5 157.5t93 141t142.5 102.5t180 39q61 0 114.5 -16.5t93.5 -49t62.5 -79.5t22.5 -111q0 -92 -45 -152.5t-107 -60.5q-55 0 -96 55q18 6 34.5 24.5t29 44.5t19.5 54.5 t7 55.5q0 63 -35.5 88.5t-76.5 25.5q-45 0 -84 -24.5t-67 -65.5t-43 -93t-15 -106q0 -45 11 -88t36.5 -79.5t64.5 -64.5t95 -42q-82 -18 -150 -70.5t-116 -122t-74.5 -148.5t-26.5 -148q0 -86 45 -146.5t150 -60.5q47 0 101 13t106.5 40t97.5 65.5t73 90.5l48 -21 q-41 -90 -104.5 -161.5t-143.5 -121t-170 -76t-183 -26.5q-98 0 -169.5 30t-117.5 79t-67.5 114.5t-21.5 137.5zM426 1661l434 387h43l123 -387h-65l-123 164l-322 -164h-90z" />
<glyph unicode="&#xcb;" horiz-adv-x="919" d="M27 324q0 80 25.5 164.5t74.5 158.5t119.5 129t159.5 78q-66 47 -95.5 111.5t-29.5 134.5q0 80 32.5 157.5t93 141t142.5 102.5t180 39q61 0 114.5 -16.5t93.5 -49t62.5 -79.5t22.5 -111q0 -92 -45 -152.5t-107 -60.5q-55 0 -96 55q18 6 34.5 24.5t29 44.5t19.5 54.5 t7 55.5q0 63 -35.5 88.5t-76.5 25.5q-45 0 -84 -24.5t-67 -65.5t-43 -93t-15 -106q0 -45 11 -88t36.5 -79.5t64.5 -64.5t95 -42q-82 -18 -150 -70.5t-116 -122t-74.5 -148.5t-26.5 -148q0 -86 45 -146.5t150 -60.5q47 0 101 13t106.5 40t97.5 65.5t73 90.5l48 -21 q-41 -90 -104.5 -161.5t-143.5 -121t-170 -76t-183 -26.5q-98 0 -169.5 30t-117.5 79t-67.5 114.5t-21.5 137.5zM500 1810q0 51 35.5 88t89.5 37q51 0 88 -36.5t37 -88.5q0 -53 -37 -88.5t-88 -35.5q-53 0 -89 35.5t-36 88.5zM868 1810q0 51 36 88t89 37q51 0 88 -36.5 t37 -88.5q0 -53 -37 -88.5t-88 -35.5q-53 0 -89 35.5t-36 88.5z" />
<glyph unicode="&#xcc;" horiz-adv-x="827" d="M115 993q0 109 64.5 207t167 173t230.5 119t254 44q23 0 43.5 -1t40.5 -3l-325 -1532h-295l297 1391q-135 -55 -211 -168t-76 -277q0 -37 4 -61.5t8.5 -40t9.5 -24.5t7 -15q-102 0 -160.5 42t-58.5 146zM453 2048h215l59 -387h-154z" />
<glyph unicode="&#xcd;" horiz-adv-x="827" d="M115 993q0 109 64.5 207t167 173t230.5 119t254 44q23 0 43.5 -1t40.5 -3l-325 -1532h-295l297 1391q-135 -55 -211 -168t-76 -277q0 -37 4 -61.5t8.5 -40t9.5 -24.5t7 -15q-102 0 -160.5 42t-58.5 146zM653 1661l187 387h215l-248 -387h-154z" />
<glyph unicode="&#xce;" horiz-adv-x="827" d="M115 993q0 109 64.5 207t167 173t230.5 119t254 44q23 0 43.5 -1t40.5 -3l-325 -1532h-295l297 1391q-135 -55 -211 -168t-76 -277q0 -37 4 -61.5t8.5 -40t9.5 -24.5t7 -15q-102 0 -160.5 42t-58.5 146zM412 1661l434 387h43l123 -387h-66l-123 164l-321 -164h-90z" />
<glyph unicode="&#xcf;" horiz-adv-x="827" d="M115 993q0 109 64.5 207t167 173t230.5 119t254 44q23 0 43.5 -1t40.5 -3l-325 -1532h-295l297 1391q-135 -55 -211 -168t-76 -277q0 -37 4 -61.5t8.5 -40t9.5 -24.5t7 -15q-102 0 -160.5 42t-58.5 146zM444 1810q0 51 36 88t89 37q51 0 88 -36.5t37 -88.5 q0 -53 -36.5 -88.5t-88.5 -35.5q-53 0 -89 35.5t-36 88.5zM813 1810q0 51 36 88t89 37q51 0 88 -36.5t37 -88.5q0 -53 -37 -88.5t-88 -35.5q-53 0 -89 35.5t-36 88.5z" />
<glyph unicode="&#xd0;" horiz-adv-x="1447" d="M117 1004q0 102 64.5 198t167 170t230.5 119t257 45q178 0 291.5 -46t180 -123t92 -176t25.5 -208q0 -199 -46 -381t-123.5 -322.5t-181 -223.5t-216.5 -83q-59 0 -121.5 26t-128.5 83l-16 -82h-295l152 707h-80l41 151h71l94 445l304 40l-105 -485h162l-41 -151h-154 l-108 -512q55 -41 117 -41q92 0 164.5 82.5t122.5 213t78 287t28 303.5q0 96 -11.5 171t-42 126.5t-86 78t-143.5 26.5q-125 0 -226.5 -34t-174 -98.5t-112.5 -156.5t-40 -209q0 -39 4 -63.5t9.5 -39t10.5 -22.5t5 -14q-106 0 -162.5 44t-56.5 155z" />
<glyph unicode="&#xd1;" horiz-adv-x="1480" d="M125 1004q0 92 42 187t122 172t196.5 125t266.5 48q25 0 62.5 -4t80.5 -25l240 -1087l243 1112h199l-348 -1532h-283l-237 1016l-234 -1016h-194l315 1395q-133 -53 -207 -163t-74 -282q0 -39 3.5 -63.5t8.5 -40t9 -24.5t8 -17q-106 0 -162.5 44t-56.5 155zM743 1704 q49 98 137.5 149.5t204.5 51.5q55 0 98.5 -10.5t82.5 -23.5t75.5 -23.5t81.5 -10.5q39 0 73 12.5t56 34.5l13 -2q-8 -37 -39 -72.5t-76 -65.5t-101.5 -48.5t-113.5 -18.5q-51 0 -95 12.5t-85 26t-81 25.5t-83 12q-78 0 -135 -53z" />
<glyph unicode="&#xd2;" horiz-adv-x="1427" d="M111 977q0 106 68.5 207.5t182 179.5t261 125t303.5 47q137 0 232 -38t153.5 -107.5t84 -165t25.5 -207.5q0 -100 -18.5 -216t-58 -229.5t-100 -220t-143.5 -187.5t-190.5 -129t-238.5 -48q-84 0 -152.5 22.5t-118 71.5t-76 127t-26.5 190q0 82 15.5 185.5t46 211 t76.5 209t108.5 180.5t139.5 127t171 48q23 0 49.5 -3.5t55.5 -13.5q-47 -29 -91.5 -88t-84.5 -139t-73.5 -173t-58 -189.5t-38 -190.5t-13.5 -172q0 -104 27.5 -162.5t95.5 -58.5q76 0 151.5 84t136 217t98.5 300t38 333q0 90 -13.5 153.5t-45 104.5t-84 60.5t-129.5 19.5 q-111 0 -215.5 -37t-185.5 -104.5t-130 -165t-49 -217.5q0 -57 6 -78t14 -35q-98 0 -152 39t-54 133zM676 2048h215l59 -387h-153z" />
<glyph unicode="&#xd3;" horiz-adv-x="1427" d="M111 977q0 106 68.5 207.5t182 179.5t261 125t303.5 47q137 0 232 -38t153.5 -107.5t84 -165t25.5 -207.5q0 -100 -18.5 -216t-58 -229.5t-100 -220t-143.5 -187.5t-190.5 -129t-238.5 -48q-84 0 -152.5 22.5t-118 71.5t-76 127t-26.5 190q0 82 15.5 185.5t46 211 t76.5 209t108.5 180.5t139.5 127t171 48q23 0 49.5 -3.5t55.5 -13.5q-47 -29 -91.5 -88t-84.5 -139t-73.5 -173t-58 -189.5t-38 -190.5t-13.5 -172q0 -104 27.5 -162.5t95.5 -58.5q76 0 151.5 84t136 217t98.5 300t38 333q0 90 -13.5 153.5t-45 104.5t-84 60.5t-129.5 19.5 q-111 0 -215.5 -37t-185.5 -104.5t-130 -165t-49 -217.5q0 -57 6 -78t14 -35q-98 0 -152 39t-54 133zM891 1661l186 387h215l-248 -387h-153z" />
<glyph unicode="&#xd4;" horiz-adv-x="1427" d="M111 977q0 106 68.5 207.5t182 179.5t261 125t303.5 47q137 0 232 -38t153.5 -107.5t84 -165t25.5 -207.5q0 -100 -18.5 -216t-58 -229.5t-100 -220t-143.5 -187.5t-190.5 -129t-238.5 -48q-84 0 -152.5 22.5t-118 71.5t-76 127t-26.5 190q0 82 15.5 185.5t46 211 t76.5 209t108.5 180.5t139.5 127t171 48q23 0 49.5 -3.5t55.5 -13.5q-47 -29 -91.5 -88t-84.5 -139t-73.5 -173t-58 -189.5t-38 -190.5t-13.5 -172q0 -104 27.5 -162.5t95.5 -58.5q76 0 151.5 84t136 217t98.5 300t38 333q0 90 -13.5 153.5t-45 104.5t-84 60.5t-129.5 19.5 q-111 0 -215.5 -37t-185.5 -104.5t-130 -165t-49 -217.5q0 -57 6 -78t14 -35q-98 0 -152 39t-54 133zM635 1661l434 387h43l123 -387h-66l-122 164l-322 -164h-90z" />
<glyph unicode="&#xd5;" horiz-adv-x="1427" d="M111 977q0 106 68.5 207.5t182 179.5t261 125t303.5 47q137 0 232 -38t153.5 -107.5t84 -165t25.5 -207.5q0 -100 -18.5 -216t-58 -229.5t-100 -220t-143.5 -187.5t-190.5 -129t-238.5 -48q-84 0 -152.5 22.5t-118 71.5t-76 127t-26.5 190q0 82 15.5 185.5t46 211 t76.5 209t108.5 180.5t139.5 127t171 48q23 0 49.5 -3.5t55.5 -13.5q-47 -29 -91.5 -88t-84.5 -139t-73.5 -173t-58 -189.5t-38 -190.5t-13.5 -172q0 -104 27.5 -162.5t95.5 -58.5q76 0 151.5 84t136 217t98.5 300t38 333q0 90 -13.5 153.5t-45 104.5t-84 60.5t-129.5 19.5 q-111 0 -215.5 -37t-185.5 -104.5t-130 -165t-49 -217.5q0 -57 6 -78t14 -35q-98 0 -152 39t-54 133zM639 1704q49 98 137 149.5t205 51.5q55 0 98 -10.5t82 -23.5t76 -23.5t82 -10.5q39 0 72.5 12.5t56.5 34.5l12 -2q-8 -37 -38.5 -72.5t-76 -65.5t-101.5 -48.5t-114 -18.5 q-51 0 -95 12.5t-85 26t-81 25.5t-83 12q-78 0 -135 -53z" />
<glyph unicode="&#xd6;" horiz-adv-x="1427" d="M111 977q0 106 68.5 207.5t182 179.5t261 125t303.5 47q137 0 232 -38t153.5 -107.5t84 -165t25.5 -207.5q0 -100 -18.5 -216t-58 -229.5t-100 -220t-143.5 -187.5t-190.5 -129t-238.5 -48q-84 0 -152.5 22.5t-118 71.5t-76 127t-26.5 190q0 82 15.5 185.5t46 211 t76.5 209t108.5 180.5t139.5 127t171 48q23 0 49.5 -3.5t55.5 -13.5q-47 -29 -91.5 -88t-84.5 -139t-73.5 -173t-58 -189.5t-38 -190.5t-13.5 -172q0 -104 27.5 -162.5t95.5 -58.5q76 0 151.5 84t136 217t98.5 300t38 333q0 90 -13.5 153.5t-45 104.5t-84 60.5t-129.5 19.5 q-111 0 -215.5 -37t-185.5 -104.5t-130 -165t-49 -217.5q0 -57 6 -78t14 -35q-98 0 -152 39t-54 133zM668 1810q0 51 35.5 88t89.5 37q51 0 88 -36.5t37 -88.5q0 -53 -37 -88.5t-88 -35.5q-53 0 -89 35.5t-36 88.5zM1036 1810q0 51 36 88t89 37q51 0 88 -36.5t37 -88.5 q0 -53 -37 -88.5t-88 -35.5q-53 0 -89 35.5t-36 88.5z" />
<glyph unicode="&#xd7;" horiz-adv-x="847" d="M72 338l194 194l-194 195l133 131l192 -194l197 196l131 -133l-195 -195l195 -194l-131 -133l-197 194l-192 -192z" />
<glyph unicode="&#xd8;" horiz-adv-x="1351" d="M94 913q0 100 65.5 195.5t176 168.5t255 117t300.5 44h24.5t24.5 -2l23 100h106l-25 -115q172 -41 243 -168t71 -307q0 -127 -35 -280.5t-109.5 -291.5t-191.5 -242.5t-279 -133.5l-30 -143h-107l29 133q-80 0 -145.5 21.5t-113.5 67.5t-74 119.5t-26 178.5 q0 78 15.5 174t45.5 196.5t74 195.5t103 169t134 119t163 45q49 0 92 -14l19 83q-35 6 -78 7q-115 0 -217.5 -34t-181 -98.5t-125 -155.5t-46.5 -206q0 -55 10.5 -73.5t10.5 -28.5q-94 0 -147.5 35.5t-53.5 123.5zM569 367q0 -92 22.5 -152.5t76.5 -71.5l233 1106 q-66 -43 -125 -146.5t-105 -230.5t-74 -261.5t-28 -243.5zM782 180q61 45 117.5 135.5t100.5 205t70 243.5t26 250q0 102 -15.5 172.5t-62.5 111.5z" />
<glyph unicode="&#xd9;" horiz-adv-x="1576" d="M113 993q0 109 65.5 207t173 173t246.5 119t289 44q27 0 46 -2t52 -8q-72 -264 -124 -453.5t-86 -324t-50 -224.5t-16 -157q0 -53 3 -90t18 -59.5t48 -34t92 -11.5q39 0 72 7t62.5 33t57.5 73t56.5 128t59 199.5t67.5 286.5l137 633h289l-135 -639 q-49 -233 -101.5 -404.5t-130 -283t-192.5 -165.5t-287 -54q-111 0 -186.5 21.5t-121.5 64.5t-66.5 104.5t-20.5 140.5q0 147 51 357.5t117 472.5l68 270q-168 -45 -265.5 -164.5t-97.5 -306.5q0 -76 11.5 -101.5t17.5 -39.5q-102 0 -160.5 42t-58.5 146zM952 2048h215 l60 -387h-154z" />
<glyph unicode="&#xda;" horiz-adv-x="1576" d="M113 993q0 109 65.5 207t173 173t246.5 119t289 44q27 0 46 -2t52 -8q-72 -264 -124 -453.5t-86 -324t-50 -224.5t-16 -157q0 -53 3 -90t18 -59.5t48 -34t92 -11.5q39 0 72 7t62.5 33t57.5 73t56.5 128t59 199.5t67.5 286.5l137 633h289l-135 -639 q-49 -233 -101.5 -404.5t-130 -283t-192.5 -165.5t-287 -54q-111 0 -186.5 21.5t-121.5 64.5t-66.5 104.5t-20.5 140.5q0 147 51 357.5t117 472.5l68 270q-168 -45 -265.5 -164.5t-97.5 -306.5q0 -76 11.5 -101.5t17.5 -39.5q-102 0 -160.5 42t-58.5 146zM1036 1661l187 387 h215l-248 -387h-154z" />
<glyph unicode="&#xdb;" horiz-adv-x="1576" d="M113 993q0 109 65.5 207t173 173t246.5 119t289 44q27 0 46 -2t52 -8q-72 -264 -124 -453.5t-86 -324t-50 -224.5t-16 -157q0 -53 3 -90t18 -59.5t48 -34t92 -11.5q39 0 72 7t62.5 33t57.5 73t56.5 128t59 199.5t67.5 286.5l137 633h289l-135 -639 q-49 -233 -101.5 -404.5t-130 -283t-192.5 -165.5t-287 -54q-111 0 -186.5 21.5t-121.5 64.5t-66.5 104.5t-20.5 140.5q0 147 51 357.5t117 472.5l68 270q-168 -45 -265.5 -164.5t-97.5 -306.5q0 -76 11.5 -101.5t17.5 -39.5q-102 0 -160.5 42t-58.5 146zM856 1661l434 387 h43l123 -387h-65l-123 164l-322 -164h-90z" />
<glyph unicode="&#xdc;" horiz-adv-x="1576" d="M113 993q0 109 65.5 207t173 173t246.5 119t289 44q27 0 46 -2t52 -8q-72 -264 -124 -453.5t-86 -324t-50 -224.5t-16 -157q0 -53 3 -90t18 -59.5t48 -34t92 -11.5q39 0 72 7t62.5 33t57.5 73t56.5 128t59 199.5t67.5 286.5l137 633h289l-135 -639 q-49 -233 -101.5 -404.5t-130 -283t-192.5 -165.5t-287 -54q-111 0 -186.5 21.5t-121.5 64.5t-66.5 104.5t-20.5 140.5q0 147 51 357.5t117 472.5l68 270q-168 -45 -265.5 -164.5t-97.5 -306.5q0 -76 11.5 -101.5t17.5 -39.5q-102 0 -160.5 42t-58.5 146zM877 1810 q0 51 35.5 88t88.5 37q51 0 88 -36.5t37 -88.5q0 -53 -36.5 -88.5t-88.5 -35.5q-53 0 -88.5 35.5t-35.5 88.5zM1245 1810q0 51 36 88t89 37q51 0 88 -36.5t37 -88.5q0 -53 -37 -88.5t-88 -35.5q-53 0 -89 35.5t-36 88.5z" />
<glyph unicode="&#xdd;" horiz-adv-x="1353" d="M113 993q0 109 64.5 207t166.5 173t230 119t255 44q23 0 43.5 -1t40.5 -3l179 -733l303 727h135l-397 -895l-136 -631h-327l135 631l-197 768q-143 -53 -224 -169t-81 -284q0 -37 4 -61.5t8 -40t9.5 -24.5t7.5 -15q-102 0 -160.5 42t-58.5 146zM1028 1661l186 387h216 l-248 -387h-154z" />
<glyph unicode="&#xde;" horiz-adv-x="1234" d="M70 778q0 76 35.5 148.5t97 136t142.5 115t173 84.5l51 233l303 41l-49 -225q117 -6 202 -41t139.5 -90.5t81 -126t26.5 -146.5q0 -98 -41 -195.5t-117 -176t-186.5 -128t-247.5 -49.5h-59l-76 -358h-295l246 1151q-115 -59 -175.5 -169t-60.5 -263q0 -39 4 -63.5 t9.5 -39t10.5 -22.5t5 -14q-106 0 -162.5 44t-56.5 154zM637 434h29q82 0 150.5 47t119.5 121t79.5 163t28.5 173q0 55 -13 104.5t-43 87t-75 61t-108 26.5z" />
<glyph unicode="&#xdf;" horiz-adv-x="921" d="M-139 -512l340 1597q23 111 64.5 178.5t94 105.5t107.5 51.5t106 13.5q72 0 124.5 -21.5t87 -57.5t52 -83t17.5 -98q0 -88 -48 -172t-140 -128q109 -37 153.5 -117.5t44.5 -172.5q0 -158 -40 -268.5t-99 -180t-127 -102.5t-123 -33q-16 0 -33.5 1t-33.5 3l26 121 q63 0 106.5 52t69 129t36.5 164t11 157q0 68 -31.5 111.5t-115.5 66.5l37 119q63 27 116.5 82t53.5 145q0 59 -18.5 80.5t-59.5 21.5q-16 0 -36.5 -7t-41 -25.5t-38 -51t-27.5 -84.5l-326 -1523z" />
<glyph unicode="&#xe0;" d="M8 317q0 70 14.5 150t43 160t71.5 153.5t102.5 130t132 90t163.5 33.5q25 0 52 -3t51 -14t41 -32.5t23 -56.5l21 96h297l-150 -696q-8 -35 -8 -66q0 -43 20.5 -59.5t63.5 -16.5q59 0 101.5 51.5t64.5 129.5h86q-43 -125 -97 -198t-110.5 -111t-110 -48t-94.5 -10 q-84 0 -136 45t-64 133q-23 -35 -53.5 -69.5t-68.5 -61.5t-83 -43t-100 -16q-53 0 -101.5 17.5t-87.5 56t-61.5 101t-22.5 154.5zM311 346q0 -59 11.5 -91t27 -47t32.5 -18.5t32 -3.5q23 0 48 11.5t50 34t43 56.5t29 79l98 462q0 8 -5 21.5t-14.5 26t-24.5 21.5t-40 9 q-66 0 -119 -60.5t-90 -147.5t-57.5 -184t-20.5 -169zM477 1536h215l60 -387h-154z" />
<glyph unicode="&#xe1;" d="M8 317q0 70 14.5 150t43 160t71.5 153.5t102.5 130t132 90t163.5 33.5q25 0 52 -3t51 -14t41 -32.5t23 -56.5l21 96h297l-150 -696q-8 -35 -8 -66q0 -43 20.5 -59.5t63.5 -16.5q59 0 101.5 51.5t64.5 129.5h86q-43 -125 -97 -198t-110.5 -111t-110 -48t-94.5 -10 q-84 0 -136 45t-64 133q-23 -35 -53.5 -69.5t-68.5 -61.5t-83 -43t-100 -16q-53 0 -101.5 17.5t-87.5 56t-61.5 101t-22.5 154.5zM311 346q0 -59 11.5 -91t27 -47t32.5 -18.5t32 -3.5q23 0 48 11.5t50 34t43 56.5t29 79l98 462q0 8 -5 21.5t-14.5 26t-24.5 21.5t-40 9 q-66 0 -119 -60.5t-90 -147.5t-57.5 -184t-20.5 -169zM537 1149l186 387h215l-248 -387h-153z" />
<glyph unicode="&#xe2;" d="M8 317q0 70 14.5 150t43 160t71.5 153.5t102.5 130t132 90t163.5 33.5q25 0 52 -3t51 -14t41 -32.5t23 -56.5l21 96h297l-150 -696q-8 -35 -8 -66q0 -43 20.5 -59.5t63.5 -16.5q59 0 101.5 51.5t64.5 129.5h86q-43 -125 -97 -198t-110.5 -111t-110 -48t-94.5 -10 q-84 0 -136 45t-64 133q-23 -35 -53.5 -69.5t-68.5 -61.5t-83 -43t-100 -16q-53 0 -101.5 17.5t-87.5 56t-61.5 101t-22.5 154.5zM311 346q0 -59 11.5 -91t27 -47t32.5 -18.5t32 -3.5q23 0 48 11.5t50 34t43 56.5t29 79l98 462q0 8 -5 21.5t-14.5 26t-24.5 21.5t-40 9 q-66 0 -119 -60.5t-90 -147.5t-57.5 -184t-20.5 -169zM334 1149l434 387h43l123 -387h-66l-123 164l-321 -164h-90z" />
<glyph unicode="&#xe3;" d="M8 317q0 70 14.5 150t43 160t71.5 153.5t102.5 130t132 90t163.5 33.5q25 0 52 -3t51 -14t41 -32.5t23 -56.5l21 96h297l-150 -696q-8 -35 -8 -66q0 -43 20.5 -59.5t63.5 -16.5q59 0 101.5 51.5t64.5 129.5h86q-43 -125 -97 -198t-110.5 -111t-110 -48t-94.5 -10 q-84 0 -136 45t-64 133q-23 -35 -53.5 -69.5t-68.5 -61.5t-83 -43t-100 -16q-53 0 -101.5 17.5t-87.5 56t-61.5 101t-22.5 154.5zM244 1192q49 98 137 149.5t205 51.5q55 0 98 -10.5t82 -23.5t76 -23.5t82 -10.5q39 0 72.5 12.5t56.5 34.5l12 -2q-8 -37 -39 -72.5t-76 -65.5 t-101 -48.5t-114 -18.5q-51 0 -95 12.5t-85 26t-81 25.5t-83 12q-78 0 -135 -53zM311 346q0 -59 11.5 -91t27 -47t32.5 -18.5t32 -3.5q23 0 48 11.5t50 34t43 56.5t29 79l98 462q0 8 -5 21.5t-14.5 26t-24.5 21.5t-40 9q-66 0 -119 -60.5t-90 -147.5t-57.5 -184t-20.5 -169z " />
<glyph unicode="&#xe4;" d="M8 317q0 70 14.5 150t43 160t71.5 153.5t102.5 130t132 90t163.5 33.5q25 0 52 -3t51 -14t41 -32.5t23 -56.5l21 96h297l-150 -696q-8 -35 -8 -66q0 -43 20.5 -59.5t63.5 -16.5q59 0 101.5 51.5t64.5 129.5h86q-43 -125 -97 -198t-110.5 -111t-110 -48t-94.5 -10 q-84 0 -136 45t-64 133q-23 -35 -53.5 -69.5t-68.5 -61.5t-83 -43t-100 -16q-53 0 -101.5 17.5t-87.5 56t-61.5 101t-22.5 154.5zM311 346q0 -59 11.5 -91t27 -47t32.5 -18.5t32 -3.5q23 0 48 11.5t50 34t43 56.5t29 79l98 462q0 8 -5 21.5t-14.5 26t-24.5 21.5t-40 9 q-66 0 -119 -60.5t-90 -147.5t-57.5 -184t-20.5 -169zM403 1298q0 51 36 88t89 37q51 0 88 -36.5t37 -88.5q0 -53 -36.5 -88.5t-88.5 -35.5q-53 0 -89 35.5t-36 88.5zM772 1298q0 51 36 88t89 37q51 0 88 -36.5t37 -88.5q0 -53 -37 -88.5t-88 -35.5q-53 0 -89 35.5t-36 88.5 z" />
<glyph unicode="&#xe5;" d="M8 317q0 70 14.5 150t43 160t71.5 153.5t102.5 130t132 90t163.5 33.5q25 0 52 -3t51 -14t41 -32.5t23 -56.5l21 96h297l-150 -696q-8 -35 -8 -66q0 -43 20.5 -59.5t63.5 -16.5q59 0 101.5 51.5t64.5 129.5h86q-43 -125 -97 -198t-110.5 -111t-110 -48t-94.5 -10 q-84 0 -136 45t-64 133q-23 -35 -53.5 -69.5t-68.5 -61.5t-83 -43t-100 -16q-53 0 -101.5 17.5t-87.5 56t-61.5 101t-22.5 154.5zM311 346q0 -59 11.5 -91t27 -47t32.5 -18.5t32 -3.5q23 0 48 11.5t50 34t43 56.5t29 79l98 462q0 8 -5 21.5t-14.5 26t-24.5 21.5t-40 9 q-66 0 -119 -60.5t-90 -147.5t-57.5 -184t-20.5 -169zM514 1274q0 27 10.5 59.5t30.5 61t53 47t80 18.5q76 0 112 -46t36 -111q0 -68 -41 -120.5t-138 -52.5q-66 0 -104.5 42t-38.5 102zM596 1278q0 -35 16.5 -55.5t53.5 -20.5q47 0 70.5 25.5t23.5 68.5q0 14 -1 32t-8.5 32 t-20.5 23.5t-38 9.5q-53 0 -74.5 -38t-21.5 -77z" />
<glyph unicode="&#xe6;" horiz-adv-x="1329" d="M18 254q0 94 35 159.5t96.5 105.5t144.5 57.5t179 17.5q37 0 62.5 -2t44.5 -6q20 43 31.5 90t11.5 90q0 61 -30 103t-95 42q-92 0 -147.5 -27.5t-100.5 -68.5l-57 59q57 57 106 90t94 48.5t87 18.5t85 3q78 0 145.5 -19.5t120.5 -62.5q55 41 124 65.5t153 24.5 q68 0 112 -16t68.5 -44t33.5 -64.5t9 -77.5q0 -86 -39 -161t-104.5 -132.5t-150.5 -92t-177 -40.5q-2 -16 -3 -32.5t-1 -33.5q0 -115 34 -151.5t89 -36.5q74 0 128 14t97 42t81 65.5t81 85.5h70q-43 -70 -97.5 -136.5t-124 -120t-154.5 -86t-190 -32.5q-113 0 -192.5 44 t-108.5 148q-20 -39 -45.5 -74.5t-59.5 -62.5t-79 -43t-106 -16q-45 0 -91.5 11t-84 41t-61.5 81t-24 133zM307 289q0 -35 11.5 -55.5t26.5 -30.5t30.5 -13.5t25.5 -3.5q25 0 48.5 12.5t44 44t38 86t33.5 138.5q-10 2 -17.5 2h-17.5q-100 0 -161.5 -49t-61.5 -131zM874 512 q59 4 113.5 33.5t95.5 76t66 104t25 118.5q0 43 -10.5 66.5t-39.5 23.5q-41 0 -78.5 -38t-70.5 -99.5t-58.5 -136t-42.5 -148.5z" />
<glyph unicode="&#xe7;" horiz-adv-x="786" d="M8 313q0 59 12.5 135t39 156t68.5 157t103.5 138.5t142.5 98t185 36.5q68 0 112 -15t69.5 -41t35.5 -58.5t10 -65.5q0 -76 -31.5 -124t-76.5 -48q-16 0 -40 6.5t-42 18.5q16 35 25.5 75.5t9.5 67.5q0 76 -58 76q-53 0 -102 -61.5t-86 -151.5t-59.5 -192.5t-22.5 -186.5 q0 -104 41 -139t115 -35q61 0 110 16.5t92.5 44t82 65.5t77.5 81h70q-43 -72 -98.5 -139.5t-125 -121t-153.5 -86t-186 -32.5h-17.5t-17.5 2l10 22l-72 47l-20 -57q-94 25 -148.5 100.5t-54.5 210.5zM14 -389q14 25 34 45t48 20q31 0 50.5 -8t35 -19t29.5 -19.5t37 -8.5 q27 0 44 26.5t17 59.5q0 29 -18.5 51.5t-61.5 22.5q-41 0 -65.5 -8.5t-40.5 -16.5l88 246q37 -8 82 -12l-49 -125q66 16 108 16q66 0 96.5 -27.5t30.5 -74.5q0 -55 -21.5 -97t-56 -71t-78.5 -43t-90 -14q-78 0 -126 17t-93 40z" />
<glyph unicode="&#xe8;" horiz-adv-x="786" d="M8 313q0 59 12.5 135t38 156t68.5 157t104.5 138.5t143.5 98t186 36.5q68 0 112 -16.5t69.5 -44t34.5 -62t9 -73.5q0 -86 -38.5 -162t-104 -132.5t-150.5 -90t-178 -39.5q-2 -23 -3 -43.5t-1 -38.5q0 -104 37 -138t111 -34q61 0 110 16.5t92.5 44t82 65.5t77.5 81h70 q-43 -72 -98.5 -139.5t-125 -121t-153.5 -86t-186 -32.5q-145 0 -232.5 75.5t-87.5 249.5zM332 512q59 4 113.5 32.5t95.5 74t64.5 104t23.5 119.5q0 39 -11.5 61.5t-39.5 22.5q-39 0 -76 -37t-70 -95.5t-58.5 -132t-41.5 -149.5zM389 1536h215l60 -387h-154z" />
<glyph unicode="&#xe9;" horiz-adv-x="786" d="M8 313q0 59 12.5 135t38 156t68.5 157t104.5 138.5t143.5 98t186 36.5q68 0 112 -16.5t69.5 -44t34.5 -62t9 -73.5q0 -86 -38.5 -162t-104 -132.5t-150.5 -90t-178 -39.5q-2 -23 -3 -43.5t-1 -38.5q0 -104 37 -138t111 -34q61 0 110 16.5t92.5 44t82 65.5t77.5 81h70 q-43 -72 -98.5 -139.5t-125 -121t-153.5 -86t-186 -32.5q-145 0 -232.5 75.5t-87.5 249.5zM332 512q59 4 113.5 32.5t95.5 74t64.5 104t23.5 119.5q0 39 -11.5 61.5t-39.5 22.5q-39 0 -76 -37t-70 -95.5t-58.5 -132t-41.5 -149.5zM432 1149l186 387h216l-248 -387h-154z" />
<glyph unicode="&#xea;" horiz-adv-x="786" d="M8 313q0 59 12.5 135t38 156t68.5 157t104.5 138.5t143.5 98t186 36.5q68 0 112 -16.5t69.5 -44t34.5 -62t9 -73.5q0 -86 -38.5 -162t-104 -132.5t-150.5 -90t-178 -39.5q-2 -23 -3 -43.5t-1 -38.5q0 -104 37 -138t111 -34q61 0 110 16.5t92.5 44t82 65.5t77.5 81h70 q-43 -72 -98.5 -139.5t-125 -121t-153.5 -86t-186 -32.5q-145 0 -232.5 75.5t-87.5 249.5zM250 1149l434 387h43l123 -387h-66l-122 164l-322 -164h-90zM332 512q59 4 113.5 32.5t95.5 74t64.5 104t23.5 119.5q0 39 -11.5 61.5t-39.5 22.5q-39 0 -76 -37t-70 -95.5 t-58.5 -132t-41.5 -149.5z" />
<glyph unicode="&#xeb;" horiz-adv-x="786" d="M8 313q0 59 12.5 135t38 156t68.5 157t104.5 138.5t143.5 98t186 36.5q68 0 112 -16.5t69.5 -44t34.5 -62t9 -73.5q0 -86 -38.5 -162t-104 -132.5t-150.5 -90t-178 -39.5q-2 -23 -3 -43.5t-1 -38.5q0 -104 37 -138t111 -34q61 0 110 16.5t92.5 44t82 65.5t77.5 81h70 q-43 -72 -98.5 -139.5t-125 -121t-153.5 -86t-186 -32.5q-145 0 -232.5 75.5t-87.5 249.5zM279 1298q0 51 35.5 88t88.5 37q51 0 88 -36.5t37 -88.5q0 -53 -36.5 -88.5t-88.5 -35.5q-53 0 -88.5 35.5t-35.5 88.5zM332 512q59 4 113.5 32.5t95.5 74t64.5 104t23.5 119.5 q0 39 -11.5 61.5t-39.5 22.5q-39 0 -76 -37t-70 -95.5t-58.5 -132t-41.5 -149.5zM647 1298q0 51 36 88t89 37q51 0 88 -36.5t37 -88.5q0 -53 -37 -88.5t-88 -35.5q-53 0 -89 35.5t-36 88.5z" />
<glyph unicode="&#xec;" horiz-adv-x="546" d="M18 233q0 55 17 134l139 657h295l-147 -696q-8 -35 -9 -66q0 -43 20.5 -59.5t63.5 -16.5q59 0 110.5 51.5t74.5 129.5h86q-43 -125 -100.5 -200t-117 -115t-115.5 -52t-97 -12q-92 0 -156 58t-64 187zM170 1536h215l59 -387h-153z" />
<glyph unicode="&#xed;" horiz-adv-x="546" d="M18 233q0 55 17 134l139 657h295l-147 -696q-8 -35 -9 -66q0 -43 20.5 -59.5t63.5 -16.5q59 0 110.5 51.5t74.5 129.5h86q-43 -125 -100.5 -200t-117 -115t-115.5 -52t-97 -12q-92 0 -156 58t-64 187zM283 1149l186 387h215l-248 -387h-153z" />
<glyph unicode="&#xee;" horiz-adv-x="546" d="M18 233q0 55 17 134l139 657h295l-147 -696q-8 -35 -9 -66q0 -43 20.5 -59.5t63.5 -16.5q59 0 110.5 51.5t74.5 129.5h86q-43 -125 -100.5 -200t-117 -115t-115.5 -52t-97 -12q-92 0 -156 58t-64 187zM47 1149l434 387h43l123 -387h-65l-123 164l-322 -164h-90z" />
<glyph unicode="&#xef;" horiz-adv-x="546" d="M18 233q0 55 17 134l139 657h295l-147 -696q-8 -35 -9 -66q0 -43 20.5 -59.5t63.5 -16.5q59 0 110.5 51.5t74.5 129.5h86q-43 -125 -100.5 -200t-117 -115t-115.5 -52t-97 -12q-92 0 -156 58t-64 187zM70 1298q0 51 35.5 88t89.5 37q51 0 87.5 -36.5t36.5 -88.5 q0 -53 -36.5 -88.5t-87.5 -35.5q-53 0 -89 35.5t-36 88.5zM438 1298q0 51 36 88t89 37q51 0 88 -36.5t37 -88.5q0 -53 -37 -88.5t-88 -35.5q-53 0 -89 35.5t-36 88.5z" />
<glyph unicode="&#xf0;" horiz-adv-x="1101" d="M33 317q0 70 14 150t43 160t72 153.5t102.5 130t132 90t162.5 33.5q88 0 127 -29.5t39 -74.5v-12l16 75q20 104 25 185l-154 -25l4 80l144 22q-10 47 -28.5 90.5t-53.5 88.5h92q51 -29 99.5 -64t84.5 -82l152 27v-84l-109 -19q14 -35 22.5 -76.5t8.5 -95.5 q0 -78 -22 -190l-111 -522q-8 -35 -8 -66q0 -43 20.5 -59.5t63.5 -16.5q59 0 101 51.5t65 129.5h86q-43 -125 -97.5 -198t-111 -111t-109.5 -48t-94 -10q-84 0 -136 45t-65 133q-23 -35 -53.5 -69.5t-68 -61.5t-83 -43t-100.5 -16q-53 0 -101 17.5t-87 56t-61.5 101 t-22.5 154.5zM336 346q0 -59 11 -91t26.5 -47t33 -18.5t31.5 -3.5q23 0 48.5 11.5t50 34t43 56.5t28.5 79l99 462q0 8 -4.5 21.5t-13.5 26t-25.5 21.5t-40.5 9q-66 0 -119 -60.5t-90 -147.5t-57.5 -184t-20.5 -169z" />
<glyph unicode="&#xf1;" horiz-adv-x="1034" d="M-43 0l217 1024h295l-23 -106q66 74 129.5 94t110.5 20q98 0 162.5 -54t64.5 -177q0 -61 -15 -136t-33.5 -148t-34 -137.5t-15.5 -107.5q0 -39 17.5 -62.5t64.5 -23.5q33 0 58.5 13.5t45 37t36 56.5t32.5 74h86q-43 -127 -92 -202t-100.5 -114t-99.5 -51t-89 -12 q-68 0 -114 19.5t-74.5 52t-41 74.5t-12.5 85q0 51 14.5 122t32 142.5t32 140t14.5 117.5q0 104 -74 105q-55 0 -96 -55.5t-64 -133.5l-139 -657h-295zM215 1192q49 98 137 149.5t205 51.5q55 0 98 -10.5t82 -23.5t76 -23.5t82 -10.5q39 0 72.5 12.5t56.5 34.5l12 -2 q-8 -37 -38.5 -72.5t-75.5 -65.5t-101.5 -48.5t-113.5 -18.5q-51 0 -95.5 12.5t-85.5 26t-80.5 25.5t-83.5 12q-78 0 -135 -53z" />
<glyph unicode="&#xf2;" horiz-adv-x="899" d="M6 311q0 59 12.5 135t40 157t70.5 158t105.5 138.5t144.5 98t188 36.5q258 0 262 -321q8 -2 23 -2q35 0 77 10t84 27.5t82 40t72 45.5l19 -56q-59 -63 -154.5 -107t-206.5 -63q-12 -143 -55 -257.5t-108.5 -195.5t-149.5 -124t-178 -43q-72 0 -132.5 17.5t-103.5 56 t-67.5 100t-24.5 149.5zM311 346q0 -51 5.5 -83t17.5 -50t32.5 -25.5t49.5 -7.5q37 0 74.5 32t69.5 88t56.5 134t36.5 168q-33 8 -44 31.5t-11 54.5q0 43 17.5 70.5t46.5 38.5q-4 63 -21.5 88.5t-56.5 25.5q-55 0 -104.5 -60t-86.5 -147.5t-59.5 -184.5t-22.5 -173z M414 1536h215l59 -387h-153z" />
<glyph unicode="&#xf3;" horiz-adv-x="899" d="M6 311q0 59 12.5 135t40 157t70.5 158t105.5 138.5t144.5 98t188 36.5q258 0 262 -321q8 -2 23 -2q35 0 77 10t84 27.5t82 40t72 45.5l19 -56q-59 -63 -154.5 -107t-206.5 -63q-12 -143 -55 -257.5t-108.5 -195.5t-149.5 -124t-178 -43q-72 0 -132.5 17.5t-103.5 56 t-67.5 100t-24.5 149.5zM311 346q0 -51 5.5 -83t17.5 -50t32.5 -25.5t49.5 -7.5q37 0 74.5 32t69.5 88t56.5 134t36.5 168q-33 8 -44 31.5t-11 54.5q0 43 17.5 70.5t46.5 38.5q-4 63 -21.5 88.5t-56.5 25.5q-55 0 -104.5 -60t-86.5 -147.5t-59.5 -184.5t-22.5 -173z M496 1149l186 387h215l-248 -387h-153z" />
<glyph unicode="&#xf4;" horiz-adv-x="899" d="M6 311q0 59 12.5 135t40 157t70.5 158t105.5 138.5t144.5 98t188 36.5q258 0 262 -321q8 -2 23 -2q35 0 77 10t84 27.5t82 40t72 45.5l19 -56q-59 -63 -154.5 -107t-206.5 -63q-12 -143 -55 -257.5t-108.5 -195.5t-149.5 -124t-178 -43q-72 0 -132.5 17.5t-103.5 56 t-67.5 100t-24.5 149.5zM242 1149l434 387h43l123 -387h-66l-123 164l-321 -164h-90zM311 346q0 -51 5.5 -83t17.5 -50t32.5 -25.5t49.5 -7.5q37 0 74.5 32t69.5 88t56.5 134t36.5 168q-33 8 -44 31.5t-11 54.5q0 43 17.5 70.5t46.5 38.5q-4 63 -21.5 88.5t-56.5 25.5 q-55 0 -104.5 -60t-86.5 -147.5t-59.5 -184.5t-22.5 -173z" />
<glyph unicode="&#xf5;" horiz-adv-x="899" d="M6 311q0 59 12.5 135t40 157t70.5 158t105.5 138.5t144.5 98t188 36.5q258 0 262 -321q8 -2 23 -2q35 0 77 10t84 27.5t82 40t72 45.5l19 -56q-59 -63 -154.5 -107t-206.5 -63q-12 -143 -55 -257.5t-108.5 -195.5t-149.5 -124t-178 -43q-72 0 -132.5 17.5t-103.5 56 t-67.5 100t-24.5 149.5zM129 1192q49 98 137 149.5t205 51.5q55 0 98 -10.5t82 -23.5t76 -23.5t82 -10.5q39 0 72.5 12.5t56.5 34.5l12 -2q-8 -37 -38.5 -72.5t-75.5 -65.5t-101.5 -48.5t-113.5 -18.5q-51 0 -95.5 12.5t-85.5 26t-81 25.5t-83 12q-78 0 -135 -53zM311 346 q0 -51 5.5 -83t17.5 -50t32.5 -25.5t49.5 -7.5q37 0 74.5 32t69.5 88t56.5 134t36.5 168q-33 8 -44 31.5t-11 54.5q0 43 17.5 70.5t46.5 38.5q-4 63 -21.5 88.5t-56.5 25.5q-55 0 -104.5 -60t-86.5 -147.5t-59.5 -184.5t-22.5 -173z" />
<glyph unicode="&#xf6;" horiz-adv-x="899" d="M6 311q0 59 12.5 135t40 157t70.5 158t105.5 138.5t144.5 98t188 36.5q258 0 262 -321q8 -2 23 -2q35 0 77 10t84 27.5t82 40t72 45.5l19 -56q-59 -63 -154.5 -107t-206.5 -63q-12 -143 -55 -257.5t-108.5 -195.5t-149.5 -124t-178 -43q-72 0 -132.5 17.5t-103.5 56 t-67.5 100t-24.5 149.5zM262 1298q0 51 36 88t89 37q51 0 88 -36.5t37 -88.5q0 -53 -37 -88.5t-88 -35.5q-53 0 -89 35.5t-36 88.5zM311 346q0 -51 5.5 -83t17.5 -50t32.5 -25.5t49.5 -7.5q37 0 74.5 32t69.5 88t56.5 134t36.5 168q-33 8 -44 31.5t-11 54.5q0 43 17.5 70.5 t46.5 38.5q-4 63 -21.5 88.5t-56.5 25.5q-55 0 -104.5 -60t-86.5 -147.5t-59.5 -184.5t-22.5 -173zM631 1298q0 51 35.5 88t89.5 37q51 0 88 -36.5t37 -88.5q0 -53 -37 -88.5t-88 -35.5q-53 0 -89 35.5t-36 88.5z" />
<glyph unicode="&#xf7;" horiz-adv-x="849" d="M12 422l37 162h717l-35 -162h-719zM209 164q0 68 47 116t115 48t116 -48.5t48 -115.5q0 -68 -48.5 -115t-115.5 -47q-68 0 -115 47t-47 115zM332 850q0 68 47 116t115 48t115.5 -48t47.5 -116t-48 -115t-115 -47q-68 0 -115 47t-47 115z" />
<glyph unicode="&#xf8;" horiz-adv-x="899" d="M6 311q0 57 11.5 132t38 153t67.5 153.5t100.5 137t138 100.5t179.5 45l43 207h106l-45 -215q178 -43 184 -293q39 2 81 15.5t82 32t75 39t59 36.5h66q-23 -31 -59.5 -64.5t-86 -64.5t-105.5 -56.5t-116 -41.5q-8 -129 -41.5 -235.5t-86 -186.5t-121 -132.5t-148.5 -72.5 l-45 -211h-107l43 199q-139 2 -226 77.5t-87 245.5zM311 346q0 -51 5.5 -83t17.5 -50t32.5 -25.5t49.5 -7.5q39 0 75.5 33t69.5 90t56.5 135t35.5 170q-61 12 -61 94q0 45 19.5 73t50.5 38q-6 53 -23.5 75.5t-54.5 22.5q-55 0 -104.5 -60t-86.5 -147.5t-59.5 -184.5 t-22.5 -173z" />
<glyph unicode="&#xf9;" horiz-adv-x="1034" d="M18 233q0 55 17 134l139 657h295l-147 -696q-6 -31 -7 -58q0 -35 13.5 -59.5t48.5 -24.5q59 0 100 51.5t64 129.5l139 657h295l-148 -696q-8 -35 -8 -66q0 -43 20.5 -59.5t63.5 -16.5q59 0 101.5 51.5t64.5 129.5h86q-43 -125 -97 -200t-110.5 -115t-110 -52t-94.5 -12 q-88 0 -140 49t-62 145q-39 -63 -79 -101t-79 -58.5t-76 -27.5t-69 -7q-92 0 -156 58t-64 187zM414 1536h215l59 -387h-153z" />
<glyph unicode="&#xfa;" horiz-adv-x="1034" d="M18 233q0 55 17 134l139 657h295l-147 -696q-6 -31 -7 -58q0 -35 13.5 -59.5t48.5 -24.5q59 0 100 51.5t64 129.5l139 657h295l-148 -696q-8 -35 -8 -66q0 -43 20.5 -59.5t63.5 -16.5q59 0 101.5 51.5t64.5 129.5h86q-43 -125 -97 -200t-110.5 -115t-110 -52t-94.5 -12 q-88 0 -140 49t-62 145q-39 -63 -79 -101t-79 -58.5t-76 -27.5t-69 -7q-92 0 -156 58t-64 187zM524 1149l187 387h215l-248 -387h-154z" />
<glyph unicode="&#xfb;" horiz-adv-x="1034" d="M18 233q0 55 17 134l139 657h295l-147 -696q-6 -31 -7 -58q0 -35 13.5 -59.5t48.5 -24.5q59 0 100 51.5t64 129.5l139 657h295l-148 -696q-8 -35 -8 -66q0 -43 20.5 -59.5t63.5 -16.5q59 0 101.5 51.5t64.5 129.5h86q-43 -125 -97 -200t-110.5 -115t-110 -52t-94.5 -12 q-88 0 -140 49t-62 145q-39 -63 -79 -101t-79 -58.5t-76 -27.5t-69 -7q-92 0 -156 58t-64 187zM293 1149l434 387h43l123 -387h-66l-122 164l-322 -164h-90z" />
<glyph unicode="&#xfc;" horiz-adv-x="1034" d="M18 233q0 55 17 134l139 657h295l-147 -696q-6 -31 -7 -58q0 -35 13.5 -59.5t48.5 -24.5q59 0 100 51.5t64 129.5l139 657h295l-148 -696q-8 -35 -8 -66q0 -43 20.5 -59.5t63.5 -16.5q59 0 101.5 51.5t64.5 129.5h86q-43 -125 -97 -200t-110.5 -115t-110 -52t-94.5 -12 q-88 0 -140 49t-62 145q-39 -63 -79 -101t-79 -58.5t-76 -27.5t-69 -7q-92 0 -156 58t-64 187zM313 1298q0 51 36 88t89 37q51 0 88 -36.5t37 -88.5q0 -53 -37 -88.5t-88 -35.5q-53 0 -89 35.5t-36 88.5zM682 1298q0 51 36 88t89 37q51 0 88 -36.5t37 -88.5q0 -53 -37 -88.5 t-88 -35.5q-53 0 -89 35.5t-36 88.5z" />
<glyph unicode="&#xfd;" horiz-adv-x="995" d="M18 233q0 55 17 134l139 657h295l-147 -696q-6 -25 -7 -52q0 -35 13.5 -62.5t48.5 -27.5q57 0 97 48.5t63 119.5l143 670h295l-203 -950q94 33 154.5 96t103.5 197h86q-31 -102 -73 -170t-91 -111t-100 -66.5t-98 -35.5l-31 -148q-23 -111 -65 -178.5t-92 -105t-105 -51 t-107 -13.5q-94 0 -161.5 49t-67.5 150q0 63 30.5 112t79 86t107.5 62.5t117 44.5l24 110q-66 -72 -129 -93t-116 -21q-92 0 -156 58t-64 187zM238 -285q0 -23 17 -45t52 -22q33 0 66 45t53 137l12 59q-39 -14 -75.5 -31.5t-64.5 -39t-44 -47t-16 -56.5zM522 1149l187 387 h215l-248 -387h-154z" />
<glyph unicode="&#xfe;" horiz-adv-x="968" d="M-154 -512l320 1505q25 111 24 191q0 72 -20 130t-68 120h93q49 -29 96 -61t83 -77t57.5 -107.5t21.5 -148.5q0 -23 -2 -47t-7 -53q45 41 106.5 67.5t141.5 26.5q51 0 97.5 -16.5t80 -54t53 -99t19.5 -153.5q0 -70 -9 -150t-32.5 -161t-61.5 -155.5t-93.5 -131t-132 -91 t-175.5 -34.5q-80 0 -119.5 23.5t-56.5 51.5l-106 -501zM295 217q6 -18 24.5 -34.5t55.5 -16.5q80 0 135 59.5t89 144.5t48.5 180t14.5 167q0 59 -11.5 93t-27 51.5t-33 21.5t-31.5 4q-35 0 -75 -26.5t-68 -80.5z" />
<glyph unicode="&#xff;" horiz-adv-x="995" d="M18 233q0 55 17 134l139 657h295l-147 -696q-6 -25 -7 -52q0 -35 13.5 -62.5t48.5 -27.5q57 0 97 48.5t63 119.5l143 670h295l-203 -950q94 33 154.5 96t103.5 197h86q-31 -102 -73 -170t-91 -111t-100 -66.5t-98 -35.5l-31 -148q-23 -111 -65 -178.5t-92 -105t-105 -51 t-107 -13.5q-94 0 -161.5 49t-67.5 150q0 63 30.5 112t79 86t107.5 62.5t117 44.5l24 110q-66 -72 -129 -93t-116 -21q-92 0 -156 58t-64 187zM238 -285q0 -23 17 -45t52 -22q33 0 66 45t53 137l12 59q-39 -14 -75.5 -31.5t-64.5 -39t-44 -47t-16 -56.5zM287 1298 q0 51 35.5 88t89.5 37q51 0 88 -36.5t37 -88.5q0 -53 -37 -88.5t-88 -35.5q-53 0 -89 35.5t-36 88.5zM655 1298q0 51 36 88t89 37q51 0 88 -36.5t37 -88.5q0 -53 -37 -88.5t-88 -35.5q-53 0 -89 35.5t-36 88.5z" />
<glyph unicode="&#x152;" horiz-adv-x="1781" d="M111 977q0 106 68.5 207.5t182 179.5t261 125t303.5 47q141 0 233 -39q53 18 114.5 28.5t151.5 10.5q61 0 151.5 -12.5t188.5 -12.5q47 0 94.5 5.5t90.5 19.5q-10 -33 -19.5 -69.5t-29 -71.5t-53 -63.5t-93.5 -41.5q-59 0 -114.5 9.5t-106.5 21.5t-101.5 24.5 t-101.5 18.5q47 -68 68.5 -155t21.5 -191q0 -39 -3 -79t-7 -81h272l-41 -151h-260q-33 -133 -90 -260.5t-143 -229.5h498l-43 -217h-793q-33 -4 -67.5 -8t-71.5 -4q-84 0 -152.5 22.5t-118 71.5t-76 127t-26.5 190q0 82 15.5 185.5t46 211t76.5 209t108.5 180.5t139.5 127 t171 48q23 0 49.5 -3t55.5 -14q-47 -29 -91.5 -88t-84.5 -139t-73.5 -173t-58 -189.5t-38 -190.5t-13.5 -172q0 -104 27.5 -162.5t95.5 -58.5q76 0 151.5 84t136 217t98.5 300t38 333q0 90 -13.5 153.5t-45 104.5t-84 60.5t-129.5 19.5q-111 0 -215.5 -37t-185.5 -104.5 t-130 -165t-49 -217.5q0 -57 6 -78t14 -35q-98 0 -152 39t-54 133z" />
<glyph unicode="&#x153;" horiz-adv-x="1374" d="M16 324q0 188 44 324t119 224.5t172.5 130t203.5 41.5q104 0 156.5 -50t72.5 -124q57 78 137 125t191 47q127 0 194.5 -52t67.5 -161q0 -94 -45 -167.5t-113.5 -126t-149.5 -84t-155 -39.5q-6 -49 -6 -88q0 -51 15.5 -85t39 -54.5t53 -29t60.5 -8.5q37 0 86 20.5 t97.5 57.5t91.5 86t69 107h92q-43 -80 -102 -155t-131 -133t-159 -94t-185 -36q-104 0 -174 50t-103 128q-68 -96 -153.5 -143t-171.5 -47q-164 0 -239 76.5t-75 259.5zM289 342q0 -92 39 -124t98 -32q47 0 84 34t63.5 89.5t44 127t27.5 145.5q-45 0 -65.5 27.5t-20.5 64.5 q0 45 24.5 86t65.5 57q-4 51 -23.5 79t-62.5 28q-72 0 -124 -68t-86 -162t-49 -192.5t-15 -159.5zM928 510q70 0 129 28.5t102 72.5t67.5 98.5t24.5 109.5q0 16 -3 35.5t-10 37t-21.5 30t-36.5 12.5q-43 0 -82 -39t-71 -100.5t-57.5 -137t-41.5 -147.5z" />
<glyph unicode="&#x178;" horiz-adv-x="1353" d="M113 993q0 109 64.5 207t166.5 173t230 119t255 44q23 0 43.5 -1t40.5 -3l179 -733l303 727h135l-397 -895l-136 -631h-327l135 631l-197 768q-143 -53 -224 -169t-81 -284q0 -37 4 -61.5t8 -40t9.5 -24.5t7.5 -15q-102 0 -160.5 42t-58.5 146zM877 1810q0 51 35.5 88 t88.5 37q51 0 88 -36.5t37 -88.5q0 -53 -36.5 -88.5t-88.5 -35.5q-53 0 -88.5 35.5t-35.5 88.5zM1245 1810q0 51 36 88t89 37q51 0 88 -36.5t37 -88.5q0 -53 -37 -88.5t-88 -35.5q-53 0 -89 35.5t-36 88.5z" />
<glyph unicode="&#x2c6;" horiz-adv-x="600" d="M0 1149l434 387h43l123 -387h-65l-123 164l-322 -164h-90z" />
<glyph unicode="&#x2dc;" horiz-adv-x="825" d="M78 1192q49 98 137 149.5t205 51.5q55 0 98 -10.5t82 -23.5t76 -23.5t82 -10.5q39 0 72.5 12.5t56.5 34.5l12 -2q-8 -37 -39 -72.5t-76 -65.5t-101 -48.5t-114 -18.5q-51 0 -95 12.5t-85 26t-81 25.5t-83 12q-78 0 -135 -53z" />
<glyph unicode="&#x2000;" horiz-adv-x="1024" />
<glyph unicode="&#x2001;" horiz-adv-x="2048" />
<glyph unicode="&#x2002;" horiz-adv-x="1024" />
<glyph unicode="&#x2003;" horiz-adv-x="2048" />
<glyph unicode="&#x2004;" horiz-adv-x="682" />
<glyph unicode="&#x2005;" horiz-adv-x="512" />
<glyph unicode="&#x2006;" horiz-adv-x="341" />
<glyph unicode="&#x2007;" horiz-adv-x="341" />
<glyph unicode="&#x2008;" horiz-adv-x="256" />
<glyph unicode="&#x2009;" horiz-adv-x="409" />
<glyph unicode="&#x200a;" horiz-adv-x="113" />
<glyph unicode="&#x2010;" horiz-adv-x="657" d="M80 455l37 161h409l-34 -161h-412z" />
<glyph unicode="&#x2011;" horiz-adv-x="657" d="M80 455l37 161h409l-34 -161h-412z" />
<glyph unicode="&#x2012;" horiz-adv-x="657" d="M80 455l37 161h409l-34 -161h-412z" />
<glyph unicode="&#x2013;" horiz-adv-x="780" d="M80 455l37 161h532l-35 -161h-534z" />
<glyph unicode="&#x2014;" horiz-adv-x="964" d="M80 455l37 161h717l-35 -161h-719z" />
<glyph unicode="&#x2018;" horiz-adv-x="428" d="M190 1188q0 80 66 174t182 170q18 -10 19 -29l-101 -143q0 -20 25 -35q39 -23 64.5 -54.5t25.5 -74.5q0 -59 -43 -101t-106 -42t-97.5 37.5t-34.5 97.5z" />
<glyph unicode="&#x2019;" horiz-adv-x="421" d="M223 1389q0 59 43 101t107 42q63 0 97 -38t34 -97q0 -80 -65.5 -174.5t-182.5 -169.5q-18 10 -18 28l100 144q0 18 -25 35q-39 23 -64.5 54.5t-25.5 74.5z" />
<glyph unicode="&#x201a;" horiz-adv-x="450" d="M-20 156q0 59 43 101t106 42t97 -38t34 -97q0 -80 -65.5 -174t-182.5 -170q-18 10 -18 28l100 144q0 18 -24 35q-39 23 -64.5 54.5t-25.5 74.5z" />
<glyph unicode="&#x201c;" horiz-adv-x="878" d="M190 1188q0 80 66 174t182 170q18 -10 19 -29l-101 -143q0 -20 25 -35q39 -23 64.5 -54.5t25.5 -74.5q0 -59 -43 -101t-106 -42t-97.5 37.5t-34.5 97.5zM641 1188q0 80 65.5 174t182.5 170q18 -10 18 -29l-100 -143q0 -20 24 -35q39 -23 65 -54.5t26 -74.5 q0 -59 -43 -101t-107 -42q-63 0 -97 37.5t-34 97.5z" />
<glyph unicode="&#x201d;" horiz-adv-x="872" d="M223 1389q0 59 43 101t107 42q63 0 97 -38t34 -97q0 -80 -65.5 -174.5t-182.5 -169.5q-18 10 -18 28l100 144q0 18 -25 35q-39 23 -64.5 54.5t-25.5 74.5zM674 1389q0 59 43 101t106 42t97 -38t34 -97q0 -80 -65.5 -174.5t-181.5 -169.5q-18 10 -19 28l100 144 q0 18 -24 35q-39 23 -64.5 54.5t-25.5 74.5z" />
<glyph unicode="&#x201e;" horiz-adv-x="901" d="M-20 156q0 59 43 101t106 42t97 -38t34 -97q0 -80 -65.5 -174t-182.5 -170q-18 10 -18 28l100 144q0 18 -24 35q-39 23 -64.5 54.5t-25.5 74.5zM430 156q0 59 43 101t107 42q63 0 97 -38t34 -97q0 -80 -65.5 -174t-182.5 -170q-18 10 -19 28l101 144q0 18 -25 35 q-39 23 -64.5 54.5t-25.5 74.5z" />
<glyph unicode="&#x2022;" horiz-adv-x="575" d="M68 547q0 41 15 76.5t42 63.5t62.5 43t76.5 15t77 -15t63.5 -43t43 -63.5t15.5 -76.5t-15.5 -77t-43 -62.5t-63.5 -42t-77 -15.5q-82 0 -139 57.5t-57 139.5z" />
<glyph unicode="&#x2026;" horiz-adv-x="1474" d="M-18 154q0 68 47 115.5t114 47.5q68 0 116 -48t48 -115q0 -68 -48 -115t-116 -47t-114.5 47t-46.5 115zM463 154q0 68 47 115.5t115 47.5t115.5 -48t47.5 -115q0 -68 -48 -115t-115 -47q-68 0 -115 47t-47 115zM965 154q0 68 47 115.5t114 47.5q68 0 116 -48t48 -115 q0 -68 -48 -115t-116 -47t-114.5 47t-46.5 115z" />
<glyph unicode="&#x202f;" horiz-adv-x="409" />
<glyph unicode="&#x2039;" horiz-adv-x="630" d="M16 520l443 400l86 -93l-359 -309l281 -287l-82 -90z" />
<glyph unicode="&#x203a;" horiz-adv-x="636" d="M35 233l358 310l-280 286l82 91l368 -379l-442 -400z" />
<glyph unicode="&#x205f;" horiz-adv-x="512" />
<glyph unicode="&#x20ac;" horiz-adv-x="1267" d="M39 582l29 102h151q4 33 8 65.5t9 67.5h-146l29 103h137q29 123 79 234.5t129 196.5t186.5 135t252.5 50q72 0 136.5 -15.5t113.5 -48t78 -85t29 -125.5q0 -82 -33 -135.5t-111 -53.5q-25 0 -56.5 9.5t-60.5 43.5q18 6 35 25.5t29 45.5t19.5 52.5t7.5 44.5q0 12 -4.5 37 t-17.5 48.5t-42 42t-78 18.5q-66 0 -122 -43t-103 -115t-83 -166t-60 -196h413l-28 -103h-408q-4 -35 -8 -67.5t-8 -65.5h401l-29 -102h-378v-27q0 -100 11 -173t40.5 -119t82 -68.5t136.5 -22.5q59 0 104 4t82 13.5t68 24.5t61 40l4 -59q-92 -121 -205.5 -164t-256.5 -43 q-78 0 -158 22.5t-144.5 81t-105.5 159.5t-41 259v72h-174z" />
<glyph unicode="&#x2122;" horiz-adv-x="1009" d="M219 1188q0 31 11.5 59.5t36 51t64.5 36t97 13.5q18 0 63.5 -5.5t90.5 -5.5q23 0 42 2t33 9q-2 -10 -5 -23.5t-9 -26t-15.5 -21.5t-21.5 -9q-25 0 -55.5 7t-65.5 11l-86 -399h-88l88 407q-53 -2 -88 -27.5t-35 -97.5q0 -23 3.5 -29.5t5.5 -11.5q-66 0 -66 60zM571 887 l140 430l84 12v-346l135 356h96l-78 -452h-88l55 319l-129 -319h-84v268l-81 -268h-50z" />
<glyph unicode="&#x25fc;" horiz-adv-x="1136" d="M0 0v1137h1137v-1137h-1137z" />
</font>
</defs>
</svg>
